<svg width="1366" height="410" viewBox="0 0 1366 410" fill="none" xmlns="http://www.w3.org/2000/svg">
<g opacity="0.4">
<mask id="mask0_17_1106" style="mask-type:luminance" maskUnits="userSpaceOnUse" x="-8" y="0" width="1374" height="412">
<path d="M-8 0H1366V412H-8V0Z" fill="white"/>
</mask>
<g mask="url(#mask0_17_1106)">
<path d="M1319.22 326.1H1312.88V297.958C1316.31 297.764 1319.56 297.466 1322.62 297.083L1322.63 299.909C1322.09 299.93 1321.58 300.003 1321.19 300.112C1320.57 300.287 1320.28 300.539 1320.28 300.886L1320.28 301.563C1320.28 301.609 1320.29 301.653 1320.31 301.691C1320.14 301.796 1319.99 301.91 1319.86 302.038C1319.81 301.98 1319.74 301.946 1319.67 301.946C1319.62 301.946 1319.57 301.963 1319.53 301.995L1319.48 302.029C1319.45 302.055 1319.41 302.072 1319.37 302.092C1319.33 302.113 1319.3 302.133 1319.26 302.157C1319.09 302.269 1318.93 302.402 1318.74 302.567C1318.28 303.025 1317.95 303.561 1317.77 304.161C1317.75 304.153 1317.71 304.148 1317.7 304.148C1317.6 304.148 1317.51 304.216 1317.47 304.321C1317.28 304.801 1317.18 305.296 1317.18 305.798C1317.19 307.142 1317.9 308.417 1319.13 309.303C1319.37 309.47 1319.6 309.616 1319.83 309.734C1319.94 309.793 1320.06 309.848 1320.17 309.895C1320.22 309.914 1320.27 309.926 1320.32 309.931C1320.32 309.931 1320.32 310.872 1320.32 310.877C1320.32 310.891 1320.32 310.906 1320.33 310.921C1320.34 311.049 1320.42 311.151 1320.52 311.178C1320.64 311.323 1321.02 311.575 1322.68 311.602V312.284C1322.51 312.32 1322.37 312.451 1322.31 312.635C1322.29 312.689 1322.27 312.749 1322.27 312.808C1322.09 312.825 1321.93 312.948 1321.85 313.133C1321.74 313.06 1321.62 313.026 1321.49 313.026C1321.41 313.026 1321.32 313.043 1321.23 313.079C1320.89 313.213 1320.68 313.567 1320.7 313.982C1320.72 314.394 1320.96 314.721 1321.31 314.811C1321.37 314.831 1321.44 314.838 1321.5 314.838C1321.64 314.838 1321.76 314.789 1321.86 314.726C1321.94 314.911 1322.1 315.032 1322.27 315.051C1322.28 315.112 1322.29 315.173 1322.31 315.231C1322.38 315.403 1322.51 315.527 1322.68 315.568L1322.68 315.929C1322.63 315.951 1322.59 315.988 1322.57 316.034C1322.47 316.08 1322.41 316.184 1322.41 316.308V316.698C1322.41 316.771 1322.43 316.836 1322.47 316.89C1322.47 316.907 1322.47 316.921 1322.48 316.938L1322.36 320.598C1322.36 320.681 1322.39 320.759 1322.44 320.817C1322.48 320.873 1322.55 320.906 1322.62 320.906H1323.42C1323.49 320.906 1323.56 320.873 1323.61 320.817C1323.66 320.759 1323.68 320.681 1323.68 320.598L1323.56 316.948C1323.57 316.929 1323.58 316.907 1323.58 316.885C1323.62 316.834 1323.64 316.769 1323.64 316.698V316.308C1323.64 316.184 1323.58 316.08 1323.48 316.034C1323.45 315.992 1323.42 315.958 1323.37 315.937V315.595C1323.54 315.558 1323.68 315.432 1323.74 315.25C1323.76 315.194 1323.78 315.131 1323.78 315.071C1323.96 315.056 1324.12 314.932 1324.2 314.743C1324.29 314.797 1324.4 314.838 1324.55 314.838C1324.55 314.838 1324.6 314.835 1324.61 314.835C1324.84 314.816 1325.05 314.683 1325.19 314.467C1325.37 314.193 1325.4 313.846 1325.27 313.545C1325.13 313.232 1324.85 313.031 1324.55 313.031C1324.43 313.031 1324.32 313.062 1324.21 313.123C1324.13 312.934 1323.97 312.805 1323.79 312.791C1323.78 312.728 1323.77 312.667 1323.75 312.606C1323.68 312.424 1323.54 312.296 1323.37 312.264V311.597C1323.89 311.583 1324.35 311.544 1324.71 311.481C1325.23 311.394 1325.48 311.284 1325.57 311.098C1325.65 311.042 1325.7 310.95 1325.7 310.848C1325.7 310.845 1325.69 309.827 1325.69 309.827C1325.69 309.727 1325.66 309.64 1325.6 309.56C1325.67 309.536 1325.74 309.502 1325.83 309.456C1325.86 309.441 1325.89 309.424 1325.92 309.407C1325.96 309.506 1326.05 309.567 1326.15 309.567C1326.16 309.567 1326.22 309.555 1326.24 309.55C1326.29 309.528 1326.34 309.502 1326.4 309.475C1326.45 309.453 1326.49 309.436 1326.55 309.412C1326.63 309.383 1326.69 309.356 1326.76 309.32C1327.06 309.157 1327.35 308.902 1327.69 308.519C1327.97 308.204 1328.21 307.862 1328.38 307.503C1328.66 306.95 1328.8 306.339 1328.8 305.74C1328.79 305.24 1328.7 304.75 1328.51 304.287C1328.47 304.182 1328.38 304.114 1328.27 304.114C1328.26 304.114 1328.23 304.122 1328.2 304.127C1328.04 303.564 1327.74 303.059 1327.32 302.623C1327.14 302.431 1326.92 302.286 1326.71 302.145C1326.71 302.145 1326.52 302.014 1326.44 301.963C1326.4 301.941 1326.37 301.929 1326.33 301.929C1326.26 301.929 1326.19 301.97 1326.13 302.043C1325.99 301.91 1325.83 301.788 1325.64 301.672C1325.65 301.633 1325.66 301.592 1325.66 301.548L1325.66 300.857C1325.65 300.074 1324.04 299.928 1323.3 299.901L1323.28 296.996C1343.3 294.376 1354.84 288.416 1354.84 288.416C1360.03 286.554 1365.75 281.426 1366.04 274.564C1366.09 273.213 1365.18 272.066 1364 272C1362.83 271.937 1361.81 272.98 1361.75 274.334C1361.56 279.117 1356.57 282.454 1353.56 283.74C1350.67 284.975 1346.56 285.411 1343.12 285.195C1331.92 281.909 1315.2 276.422 1304.42 270.239C1302.09 268.898 1299.78 267.465 1297.51 265.961V254.267H1293.93V235.401C1297.78 235.222 1301.35 234.868 1304.61 234.4L1304.63 237.111C1304.08 237.133 1303.57 237.203 1303.18 237.315C1302.57 237.49 1302.27 237.742 1302.27 238.086L1302.28 238.763C1302.28 238.809 1302.28 238.855 1302.3 238.894C1302.13 238.996 1301.98 239.112 1301.85 239.241C1301.8 239.183 1301.73 239.149 1301.66 239.149C1301.61 239.149 1301.56 239.166 1301.52 239.197L1301.47 239.231C1301.44 239.258 1301.4 239.275 1301.36 239.294C1301.32 239.316 1301.29 239.336 1301.25 239.357C1301.08 239.471 1300.92 239.605 1300.73 239.77C1300.27 240.228 1299.94 240.762 1299.77 241.361C1299.74 241.356 1299.71 241.351 1299.7 241.351C1299.6 241.351 1299.5 241.417 1299.46 241.523C1299.27 242.001 1299.17 242.498 1299.17 243.001C1299.18 244.342 1299.89 245.62 1301.13 246.503C1301.36 246.67 1301.59 246.816 1301.82 246.937C1301.94 246.995 1302.05 247.049 1302.16 247.097C1302.21 247.117 1302.26 247.129 1302.31 247.134C1302.31 247.134 1302.31 248.075 1302.31 248.08C1302.31 248.094 1302.31 248.109 1302.32 248.121C1302.34 248.252 1302.41 248.351 1302.51 248.38C1302.63 248.526 1303.01 248.778 1304.67 248.805V249.486C1304.51 249.523 1304.36 249.654 1304.3 249.836C1304.28 249.891 1304.26 249.95 1304.26 250.01C1304.08 250.027 1303.92 250.149 1303.84 250.335C1303.73 250.263 1303.61 250.226 1303.49 250.226C1303.4 250.226 1303.31 250.246 1303.22 250.28C1302.88 250.415 1302.67 250.77 1302.69 251.184C1302.71 251.597 1302.95 251.922 1303.3 252.014C1303.37 252.031 1303.43 252.041 1303.49 252.041C1303.63 252.041 1303.76 251.992 1303.85 251.929C1303.93 252.113 1304.09 252.235 1304.27 252.252C1304.27 252.315 1304.28 252.375 1304.3 252.433C1304.37 252.606 1304.5 252.727 1304.67 252.771L1304.67 253.132C1304.63 253.154 1304.59 253.19 1304.56 253.236C1304.46 253.28 1304.4 253.387 1304.4 253.51V253.901C1304.4 253.971 1304.42 254.039 1304.46 254.09C1304.46 254.107 1304.47 254.124 1304.47 254.141L1304.36 257.801C1304.35 257.881 1304.38 257.961 1304.43 258.017C1304.48 258.075 1304.54 258.109 1304.61 258.109H1305.41C1305.48 258.109 1305.55 258.075 1305.6 258.02C1305.65 257.961 1305.68 257.881 1305.67 257.801L1305.56 254.151C1305.56 254.129 1305.57 254.11 1305.57 254.088C1305.61 254.034 1305.63 253.971 1305.63 253.901V253.51C1305.63 253.387 1305.57 253.28 1305.47 253.236C1305.45 253.193 1305.41 253.161 1305.36 253.139V252.797C1305.53 252.761 1305.67 252.635 1305.73 252.453C1305.75 252.395 1305.77 252.334 1305.77 252.273C1305.95 252.256 1306.11 252.133 1306.19 251.946C1306.28 251.999 1306.4 252.041 1306.54 252.041C1306.54 252.041 1306.6 252.038 1306.6 252.038C1306.83 252.019 1307.05 251.883 1307.18 251.669C1307.36 251.393 1307.39 251.048 1307.26 250.745C1307.12 250.432 1306.84 250.231 1306.55 250.231C1306.43 250.231 1306.31 250.265 1306.2 250.326C1306.13 250.134 1305.96 250.008 1305.78 249.993C1305.78 249.93 1305.76 249.867 1305.74 249.809C1305.68 249.627 1305.53 249.499 1305.36 249.467V248.798C1305.88 248.785 1306.34 248.744 1306.71 248.684C1307.22 248.596 1307.48 248.487 1307.57 248.298C1307.64 248.245 1307.69 248.152 1307.69 248.051C1307.69 248.048 1307.69 247.029 1307.69 247.029C1307.69 246.93 1307.65 246.84 1307.59 246.76C1307.66 246.736 1307.74 246.702 1307.82 246.658C1307.85 246.644 1307.88 246.627 1307.91 246.61C1307.95 246.709 1308.04 246.77 1308.14 246.77C1308.15 246.77 1308.21 246.758 1308.23 246.753C1308.28 246.729 1308.34 246.704 1308.39 246.678C1308.44 246.656 1308.49 246.636 1308.55 246.612C1308.62 246.585 1308.69 246.559 1308.75 246.522C1309.05 246.357 1309.34 246.103 1309.68 245.722C1309.97 245.407 1310.2 245.065 1310.38 244.706C1310.65 244.153 1310.79 243.541 1310.79 242.94C1310.79 242.443 1310.69 241.953 1310.5 241.489C1310.46 241.383 1310.37 241.315 1310.27 241.315C1310.26 241.315 1310.22 241.322 1310.2 241.327C1310.03 240.767 1309.73 240.262 1309.32 239.826C1309.13 239.631 1308.92 239.488 1308.71 239.348C1308.71 239.348 1308.51 239.217 1308.43 239.166C1308.4 239.144 1308.36 239.132 1308.32 239.132C1308.25 239.132 1308.18 239.171 1308.12 239.246C1307.98 239.112 1307.82 238.989 1307.63 238.872C1307.64 238.836 1307.65 238.795 1307.65 238.751L1307.65 238.06C1307.65 237.276 1306.03 237.131 1305.29 237.104L1305.28 234.307C1319.91 232.117 1328.28 227.773 1328.28 227.773C1332.4 226.296 1336.93 222.231 1337.16 216.79C1337.2 215.72 1336.48 214.808 1335.54 214.758C1334.62 214.709 1333.81 215.536 1333.76 216.608C1333.6 220.399 1329.65 223.048 1327.26 224.067C1324.98 225.044 1321.71 225.391 1318.99 225.219C1310.11 222.614 1296.84 218.265 1288.3 213.36C1284.99 211.459 1281.76 209.322 1278.61 207.042V193.238H1275.15V170.086C1278.77 169.766 1281.97 169.23 1284.68 168.619L1284.69 171.091C1284.14 171.112 1283.63 171.185 1283.24 171.294C1282.63 171.469 1282.33 171.721 1282.33 172.068L1282.34 172.745C1282.34 172.791 1282.34 172.834 1282.36 172.876C1282.19 172.978 1282.04 173.092 1281.91 173.22C1281.86 173.162 1281.79 173.13 1281.72 173.13C1281.67 173.13 1281.62 173.145 1281.58 173.176L1281.53 173.21C1281.5 173.237 1281.46 173.257 1281.42 173.276C1281.38 173.295 1281.35 173.315 1281.31 173.339C1281.14 173.451 1280.98 173.586 1280.79 173.749C1280.33 174.21 1280 174.743 1279.82 175.342C1279.8 175.338 1279.77 175.33 1279.76 175.33C1279.66 175.33 1279.56 175.398 1279.52 175.505C1279.33 175.983 1279.23 176.48 1279.23 176.982C1279.24 178.323 1279.95 179.602 1281.19 180.485C1281.42 180.652 1281.65 180.798 1281.88 180.916C1282 180.977 1282.11 181.03 1282.22 181.076C1282.27 181.098 1282.32 181.11 1282.37 181.115C1282.37 181.115 1282.37 182.054 1282.37 182.061C1282.37 182.073 1282.37 182.088 1282.38 182.102C1282.4 182.233 1282.47 182.333 1282.57 182.36C1282.69 182.505 1283.08 182.757 1284.73 182.786V183.468C1284.57 183.504 1284.42 183.633 1284.36 183.817C1284.34 183.873 1284.32 183.931 1284.32 183.99C1284.14 184.007 1283.98 184.13 1283.9 184.317C1283.79 184.244 1283.67 184.208 1283.54 184.208C1283.46 184.208 1283.37 184.225 1283.28 184.261C1282.94 184.395 1282.73 184.749 1282.75 185.163C1282.77 185.578 1283.01 185.903 1283.36 185.995C1283.43 186.012 1283.49 186.022 1283.55 186.022C1283.7 186.022 1283.81 185.971 1283.91 185.911C1283.99 186.092 1284.15 186.216 1284.33 186.233C1284.33 186.296 1284.34 186.357 1284.36 186.415C1284.43 186.585 1284.56 186.709 1284.73 186.752L1284.73 187.114C1284.68 187.133 1284.64 187.169 1284.62 187.218C1284.52 187.262 1284.46 187.368 1284.46 187.492V187.883C1284.46 187.953 1284.48 188.018 1284.52 188.072C1284.52 188.089 1284.53 188.106 1284.53 188.12L1284.42 191.78C1284.41 191.863 1284.44 191.943 1284.49 191.999C1284.54 192.057 1284.6 192.088 1284.67 192.088H1285.47C1285.54 192.088 1285.61 192.057 1285.66 191.999C1285.71 191.943 1285.73 191.863 1285.73 191.78L1285.62 188.13C1285.62 188.111 1285.63 188.089 1285.63 188.069C1285.67 188.016 1285.69 187.95 1285.69 187.883V187.492C1285.69 187.368 1285.63 187.262 1285.53 187.218C1285.51 187.174 1285.47 187.14 1285.42 187.118V186.779C1285.59 186.743 1285.73 186.614 1285.79 186.434C1285.82 186.376 1285.83 186.316 1285.83 186.253C1286.01 186.238 1286.17 186.114 1286.25 185.928C1286.34 185.978 1286.45 186.02 1286.6 186.02C1286.6 186.02 1286.66 186.02 1286.66 186.02C1286.89 186 1287.11 185.864 1287.24 185.651C1287.42 185.375 1287.45 185.03 1287.32 184.727C1287.18 184.414 1286.9 184.213 1286.6 184.213C1286.49 184.213 1286.37 184.244 1286.26 184.307C1286.18 184.116 1286.02 183.987 1285.84 183.973C1285.83 183.91 1285.82 183.849 1285.8 183.791C1285.73 183.606 1285.59 183.48 1285.42 183.446V182.779C1285.94 182.765 1286.4 182.726 1286.76 182.665C1287.28 182.578 1287.53 182.466 1287.63 182.28C1287.7 182.226 1287.75 182.132 1287.75 182.03L1287.74 181.011C1287.74 180.912 1287.71 180.822 1287.65 180.742C1287.72 180.717 1287.8 180.684 1287.88 180.64C1287.91 180.623 1287.94 180.606 1287.97 180.589C1288.01 180.688 1288.1 180.751 1288.2 180.751C1288.21 180.751 1288.28 180.739 1288.29 180.732C1288.34 180.71 1288.4 180.686 1288.45 180.659C1288.5 180.635 1288.54 180.618 1288.61 180.594C1288.68 180.567 1288.75 180.538 1288.81 180.504C1289.11 180.339 1289.4 180.084 1289.75 179.701C1290.03 179.388 1290.26 179.046 1290.44 178.687C1290.71 178.132 1290.85 177.523 1290.85 176.922C1290.84 176.422 1290.75 175.934 1290.56 175.469C1290.52 175.364 1290.43 175.296 1290.33 175.296C1290.31 175.296 1290.28 175.304 1290.25 175.309C1290.09 174.748 1289.79 174.244 1289.37 173.805C1289.19 173.613 1288.98 173.468 1288.77 173.327C1288.77 173.327 1288.57 173.198 1288.49 173.147C1288.46 173.123 1288.42 173.111 1288.38 173.111C1288.31 173.111 1288.24 173.152 1288.18 173.225C1288.04 173.094 1287.88 172.97 1287.69 172.854C1287.7 172.817 1287.71 172.774 1287.71 172.73L1287.71 172.039C1287.7 171.258 1286.09 171.11 1285.35 171.086L1285.34 168.464C1291.64 166.97 1295.15 165.158 1295.15 165.158C1297.93 164.161 1300.99 161.42 1301.14 157.752C1301.17 157.03 1300.68 156.416 1300.05 156.382C1299.43 156.348 1298.88 156.906 1298.85 157.629C1298.74 160.185 1296.08 161.97 1294.47 162.659C1292.93 163.317 1290.73 163.552 1288.89 163.436C1282.9 161.679 1273.96 158.747 1268.2 155.441C1247.53 143.573 1230.98 118.696 1230.98 118.696H1227.78V115.218C1229.68 112.744 1231.07 105.157 1231.07 102.799C1231.07 99.9712 1229.06 97.6767 1226.59 97.6767C1224.11 97.6767 1222.1 99.9712 1222.1 102.799C1222.1 105.157 1223.5 112.744 1225.4 115.218V118.696H1222.2C1222.2 118.696 1206.8 143.929 1184.32 156.186C1178.53 159.341 1172.01 161.573 1166.9 163.023C1166.77 163.011 1166.63 163.018 1166.49 163.064C1164.63 163.695 1160.96 163.622 1158.71 162.659C1157.1 161.97 1154.43 160.185 1154.33 157.629C1154.3 156.906 1153.75 156.348 1153.13 156.382C1152.5 156.416 1152.01 157.03 1152.04 157.752C1152.19 161.42 1155.25 164.161 1158.02 165.158C1158.02 165.158 1161.65 166.678 1167.09 168.083L1167.11 171.091C1166.56 171.112 1166.05 171.185 1165.66 171.294C1165.05 171.469 1164.75 171.721 1164.75 172.068L1164.75 172.745C1164.75 172.791 1164.76 172.834 1164.78 172.876C1164.61 172.978 1164.46 173.092 1164.33 173.22C1164.28 173.162 1164.21 173.13 1164.14 173.13C1164.09 173.13 1164.04 173.145 1164 173.176L1163.95 173.21C1163.92 173.237 1163.88 173.257 1163.84 173.276C1163.8 173.295 1163.77 173.315 1163.73 173.339C1163.56 173.451 1163.4 173.586 1163.21 173.749C1162.75 174.21 1162.42 174.743 1162.24 175.342C1162.22 175.338 1162.19 175.33 1162.18 175.33C1162.07 175.33 1161.98 175.398 1161.94 175.505C1161.75 175.983 1161.65 176.48 1161.65 176.982C1161.66 178.323 1162.37 179.602 1163.61 180.485C1163.84 180.652 1164.07 180.798 1164.3 180.916C1164.41 180.977 1164.53 181.03 1164.64 181.076C1164.69 181.098 1164.74 181.11 1164.79 181.115C1164.79 181.115 1164.79 182.054 1164.79 182.061C1164.79 182.073 1164.79 182.088 1164.8 182.102C1164.82 182.233 1164.89 182.333 1164.99 182.36C1165.11 182.505 1165.49 182.757 1167.15 182.786L1167.15 183.468C1166.98 183.504 1166.84 183.633 1166.78 183.817C1166.76 183.873 1166.74 183.931 1166.74 183.99C1166.56 184.007 1166.4 184.13 1166.32 184.317C1166.21 184.244 1166.09 184.208 1165.96 184.208C1165.88 184.208 1165.79 184.225 1165.7 184.261C1165.36 184.395 1165.15 184.749 1165.17 185.163C1165.19 185.578 1165.43 185.903 1165.78 185.995C1165.84 186.012 1165.91 186.022 1165.97 186.022C1166.11 186.022 1166.23 185.971 1166.33 185.911C1166.41 186.092 1166.57 186.216 1166.74 186.233C1166.75 186.296 1166.76 186.357 1166.78 186.415C1166.85 186.585 1166.98 186.709 1167.15 186.752V187.114C1167.1 187.133 1167.06 187.169 1167.04 187.218C1166.94 187.262 1166.88 187.368 1166.88 187.492V187.883C1166.88 187.953 1166.9 188.018 1166.94 188.072C1166.94 188.089 1166.95 188.106 1166.95 188.12L1166.83 191.78C1166.83 191.863 1166.86 191.943 1166.91 191.999C1166.95 192.057 1167.02 192.088 1167.09 192.088H1167.89C1167.96 192.088 1168.03 192.057 1168.08 191.999C1168.13 191.943 1168.16 191.863 1168.15 191.78L1168.03 188.13C1168.04 188.111 1168.05 188.089 1168.05 188.069C1168.09 188.016 1168.11 187.95 1168.11 187.883V187.492C1168.11 187.368 1168.05 187.262 1167.95 187.218C1167.92 187.174 1167.89 187.14 1167.84 187.118V186.779C1168.01 186.743 1168.15 186.614 1168.21 186.434C1168.23 186.376 1168.25 186.316 1168.25 186.253C1168.43 186.238 1168.59 186.114 1168.67 185.928C1168.76 185.978 1168.87 186.02 1169.02 186.02C1169.02 186.02 1169.07 186.02 1169.08 186.02C1169.31 186 1169.52 185.864 1169.66 185.651C1169.84 185.375 1169.87 185.03 1169.74 184.727C1169.6 184.414 1169.32 184.213 1169.03 184.213C1168.91 184.213 1168.79 184.244 1168.68 184.307C1168.6 184.116 1168.44 183.987 1168.26 183.973C1168.25 183.91 1168.24 183.849 1168.22 183.791C1168.15 183.606 1168.01 183.48 1167.84 183.446V182.779C1168.36 182.765 1168.82 182.726 1169.18 182.665C1169.7 182.578 1169.95 182.466 1170.05 182.28C1170.12 182.226 1170.17 182.132 1170.17 182.03L1170.16 181.011C1170.16 180.912 1170.13 180.822 1170.07 180.742C1170.14 180.717 1170.21 180.684 1170.3 180.64C1170.33 180.623 1170.36 180.606 1170.39 180.589C1170.43 180.688 1170.52 180.751 1170.62 180.751C1170.63 180.751 1170.69 180.739 1170.71 180.732C1170.76 180.71 1170.81 180.686 1170.87 180.659C1170.92 180.635 1170.96 180.618 1171.02 180.594C1171.1 180.567 1171.17 180.538 1171.23 180.504C1171.53 180.339 1171.82 180.084 1172.16 179.701C1172.44 179.388 1172.68 179.046 1172.85 178.687C1173.13 178.132 1173.27 177.523 1173.27 176.922C1173.26 176.422 1173.17 175.934 1172.98 175.469C1172.94 175.364 1172.85 175.296 1172.75 175.296C1172.73 175.296 1172.7 175.304 1172.67 175.309C1172.51 174.748 1172.21 174.244 1171.79 173.805C1171.61 173.613 1171.39 173.468 1171.18 173.327C1171.18 173.327 1170.99 173.198 1170.91 173.147C1170.87 173.123 1170.84 173.111 1170.8 173.111C1170.73 173.111 1170.66 173.152 1170.6 173.225C1170.46 173.094 1170.3 172.97 1170.11 172.854C1170.12 172.817 1170.13 172.774 1170.13 172.73L1170.13 172.039C1170.12 171.258 1168.51 171.11 1167.77 171.086L1167.76 168.257C1170.64 168.975 1174 169.635 1177.58 170.028V193.238H1174.57V207.782C1171.15 210.19 1167.59 212.453 1163.89 214.469C1155.31 219.143 1145.64 222.456 1138.07 224.608C1137.87 224.588 1137.66 224.6 1137.46 224.668C1134.7 225.605 1129.25 225.495 1125.91 224.067C1123.53 223.048 1119.57 220.399 1119.41 216.608C1119.37 215.536 1118.56 214.709 1117.64 214.758C1116.7 214.808 1115.97 215.72 1116.02 216.79C1116.24 222.231 1120.78 226.296 1124.9 227.773C1124.9 227.773 1133.73 231.491 1145.77 233.783L1145.79 237.111C1145.24 237.133 1144.73 237.203 1144.34 237.315C1143.73 237.49 1143.43 237.742 1143.44 238.086L1143.44 238.763C1143.44 238.809 1143.45 238.855 1143.46 238.894C1143.3 238.996 1143.15 239.112 1143.01 239.241C1142.96 239.183 1142.89 239.149 1142.82 239.149C1142.77 239.149 1142.73 239.166 1142.68 239.197L1142.64 239.231C1142.6 239.258 1142.56 239.275 1142.53 239.294C1142.49 239.316 1142.45 239.336 1142.41 239.357C1142.24 239.471 1142.09 239.605 1141.9 239.77C1141.43 240.228 1141.11 240.762 1140.93 241.361C1140.9 241.356 1140.87 241.351 1140.86 241.351C1140.76 241.351 1140.66 241.417 1140.62 241.523C1140.43 242.001 1140.34 242.498 1140.34 243.001C1140.34 244.342 1141.05 245.62 1142.29 246.503C1142.52 246.67 1142.76 246.816 1142.98 246.937C1143.1 246.995 1143.21 247.049 1143.32 247.097C1143.37 247.117 1143.42 247.129 1143.47 247.134C1143.47 247.134 1143.48 248.075 1143.48 248.08C1143.48 248.094 1143.48 248.109 1143.48 248.121C1143.5 248.252 1143.58 248.351 1143.67 248.38C1143.79 248.526 1144.18 248.778 1145.84 248.805V249.486C1145.67 249.523 1145.53 249.654 1145.46 249.836C1145.44 249.891 1145.43 249.95 1145.42 250.01C1145.24 250.027 1145.09 250.149 1145.01 250.335C1144.89 250.263 1144.77 250.226 1144.65 250.226C1144.56 250.226 1144.47 250.246 1144.38 250.28C1144.04 250.415 1143.83 250.77 1143.85 251.184C1143.87 251.597 1144.12 251.922 1144.47 252.014C1144.53 252.031 1144.59 252.041 1144.65 252.041C1144.8 252.041 1144.92 251.992 1145.01 251.929C1145.09 252.113 1145.25 252.235 1145.43 252.252C1145.43 252.315 1145.45 252.375 1145.47 252.433C1145.53 252.606 1145.66 252.727 1145.83 252.771V253.132C1145.79 253.154 1145.75 253.19 1145.72 253.236C1145.62 253.28 1145.56 253.387 1145.56 253.51V253.901C1145.56 253.971 1145.58 254.039 1145.62 254.09C1145.62 254.107 1145.63 254.124 1145.64 254.141L1145.52 257.801C1145.52 257.881 1145.54 257.961 1145.59 258.017C1145.64 258.075 1145.71 258.109 1145.78 258.109H1146.58C1146.65 258.109 1146.71 258.075 1146.76 258.02C1146.81 257.961 1146.84 257.881 1146.84 257.801L1146.72 254.151C1146.73 254.129 1146.73 254.11 1146.74 254.088C1146.77 254.034 1146.8 253.971 1146.8 253.901V253.51C1146.8 253.387 1146.73 253.28 1146.64 253.236C1146.61 253.193 1146.57 253.161 1146.53 253.139V252.797C1146.69 252.761 1146.83 252.635 1146.9 252.453C1146.92 252.395 1146.93 252.334 1146.94 252.273C1147.12 252.256 1147.28 252.133 1147.35 251.946C1147.44 251.999 1147.56 252.041 1147.7 252.041C1147.71 252.041 1147.76 252.038 1147.76 252.038C1148 252.019 1148.21 251.883 1148.34 251.669C1148.52 251.393 1148.55 251.048 1148.42 250.745C1148.28 250.432 1148 250.231 1147.71 250.231C1147.59 250.231 1147.47 250.265 1147.36 250.326C1147.29 250.134 1147.13 250.008 1146.94 249.993C1146.94 249.93 1146.92 249.867 1146.9 249.809C1146.84 249.627 1146.7 249.499 1146.53 249.467V248.798C1147.04 248.785 1147.5 248.744 1147.87 248.684C1148.38 248.596 1148.64 248.487 1148.73 248.298C1148.8 248.245 1148.85 248.152 1148.85 248.051C1148.85 248.048 1148.85 247.029 1148.85 247.029C1148.85 246.93 1148.82 246.84 1148.76 246.76C1148.82 246.736 1148.9 246.702 1148.98 246.658C1149.01 246.644 1149.04 246.627 1149.07 246.61C1149.12 246.709 1149.2 246.77 1149.3 246.77C1149.32 246.77 1149.38 246.758 1149.39 246.753C1149.45 246.729 1149.5 246.704 1149.56 246.678C1149.6 246.656 1149.65 246.636 1149.71 246.612C1149.78 246.585 1149.85 246.559 1149.91 246.522C1150.21 246.357 1150.51 246.103 1150.85 245.722C1151.13 245.407 1151.36 245.065 1151.54 244.706C1151.81 244.153 1151.95 243.541 1151.95 242.94C1151.95 242.443 1151.85 241.953 1151.67 241.489C1151.62 241.383 1151.53 241.315 1151.43 241.315C1151.42 241.315 1151.38 241.322 1151.36 241.327C1151.19 240.767 1150.9 240.262 1150.48 239.826C1150.29 239.631 1150.08 239.488 1149.87 239.348C1149.87 239.348 1149.67 239.217 1149.59 239.166C1149.56 239.144 1149.52 239.132 1149.48 239.132C1149.41 239.132 1149.34 239.171 1149.28 239.246C1149.14 239.112 1148.98 238.989 1148.79 238.872C1148.81 238.836 1148.81 238.795 1148.81 238.751L1148.81 238.06C1148.81 237.276 1147.19 237.131 1146.45 237.104L1146.44 233.9C1150.36 234.623 1154.59 235.183 1158.97 235.418V254.267H1155.67V266.785C1153.01 268.493 1150.29 270.118 1147.51 271.634C1136.7 277.533 1124.5 281.71 1114.95 284.422C1114.7 284.4 1114.44 284.414 1114.18 284.502C1110.7 285.68 1103.83 285.542 1099.62 283.74C1096.61 282.454 1091.62 279.117 1091.42 274.334C1091.36 272.98 1090.34 271.937 1089.18 272C1088 272.066 1087.08 273.213 1087.14 274.564C1087.42 281.426 1093.14 286.554 1098.34 288.416C1098.34 288.416 1111.49 293.956 1128.72 296.707L1128.73 299.909C1128.18 299.93 1127.67 300.003 1127.28 300.112C1126.67 300.287 1126.37 300.539 1126.37 300.886L1126.38 301.563C1126.38 301.609 1126.39 301.653 1126.4 301.691C1126.24 301.796 1126.09 301.91 1125.95 302.038C1125.9 301.98 1125.84 301.946 1125.76 301.946C1125.71 301.946 1125.66 301.963 1125.62 301.995L1125.58 302.029C1125.54 302.055 1125.5 302.072 1125.47 302.092C1125.43 302.113 1125.39 302.133 1125.35 302.157C1125.18 302.269 1125.02 302.402 1124.84 302.567C1124.37 303.025 1124.05 303.561 1123.87 304.161C1123.85 304.153 1123.81 304.148 1123.8 304.148C1123.7 304.148 1123.61 304.216 1123.56 304.321C1123.37 304.801 1123.27 305.296 1123.28 305.798C1123.28 307.142 1123.99 308.417 1125.23 309.303C1125.46 309.47 1125.7 309.616 1125.92 309.734C1126.04 309.793 1126.15 309.848 1126.26 309.895C1126.31 309.914 1126.36 309.926 1126.41 309.931C1126.41 309.931 1126.41 310.872 1126.41 310.877C1126.41 310.891 1126.42 310.906 1126.42 310.921C1126.44 311.049 1126.52 311.151 1126.61 311.178C1126.73 311.323 1127.12 311.575 1128.77 311.602V312.284C1128.61 312.32 1128.47 312.451 1128.4 312.635C1128.38 312.689 1128.37 312.749 1128.36 312.808C1128.18 312.825 1128.03 312.948 1127.95 313.133C1127.83 313.06 1127.71 313.026 1127.59 313.026C1127.5 313.026 1127.41 313.043 1127.32 313.079C1126.98 313.213 1126.77 313.567 1126.79 313.982C1126.81 314.394 1127.05 314.721 1127.4 314.811C1127.47 314.831 1127.53 314.838 1127.59 314.838C1127.74 314.838 1127.86 314.789 1127.95 314.726C1128.03 314.911 1128.19 315.032 1128.37 315.051C1128.37 315.112 1128.39 315.173 1128.41 315.231C1128.47 315.403 1128.6 315.527 1128.77 315.568L1128.77 315.929C1128.73 315.951 1128.69 315.988 1128.66 316.034C1128.56 316.08 1128.5 316.184 1128.5 316.308V316.698C1128.5 316.771 1128.52 316.836 1128.56 316.89C1128.56 316.907 1128.57 316.921 1128.58 316.938L1128.46 320.598C1128.45 320.681 1128.48 320.759 1128.53 320.817C1128.58 320.873 1128.65 320.906 1128.72 320.906H1129.52C1129.59 320.906 1129.66 320.873 1129.7 320.817C1129.75 320.759 1129.78 320.681 1129.78 320.598L1129.66 316.948C1129.67 316.929 1129.67 316.907 1129.68 316.885C1129.71 316.834 1129.73 316.769 1129.73 316.698V316.308C1129.73 316.184 1129.67 316.08 1129.57 316.034C1129.55 315.992 1129.51 315.958 1129.47 315.937V315.595C1129.63 315.558 1129.77 315.432 1129.84 315.25C1129.86 315.194 1129.87 315.131 1129.87 315.071C1130.06 315.056 1130.22 314.932 1130.29 314.743C1130.38 314.797 1130.5 314.838 1130.64 314.838C1130.64 314.838 1130.7 314.835 1130.7 314.835C1130.93 314.816 1131.15 314.683 1131.28 314.467C1131.47 314.193 1131.49 313.846 1131.36 313.545C1131.22 313.232 1130.95 313.031 1130.65 313.031C1130.53 313.031 1130.41 313.062 1130.3 313.123C1130.23 312.934 1130.07 312.805 1129.88 312.791C1129.88 312.728 1129.87 312.667 1129.84 312.606C1129.78 312.424 1129.63 312.296 1129.47 312.264V311.597C1129.98 311.583 1130.44 311.544 1130.81 311.481C1131.33 311.394 1131.58 311.284 1131.67 311.098C1131.74 311.042 1131.79 310.95 1131.79 310.848C1131.79 310.845 1131.79 309.827 1131.79 309.827C1131.79 309.727 1131.76 309.64 1131.69 309.56C1131.76 309.536 1131.84 309.502 1131.92 309.456C1131.95 309.441 1131.98 309.424 1132.01 309.407C1132.06 309.506 1132.14 309.567 1132.24 309.567C1132.26 309.567 1132.32 309.555 1132.33 309.55C1132.39 309.528 1132.44 309.502 1132.49 309.475C1132.54 309.453 1132.59 309.436 1132.65 309.412C1132.72 309.383 1132.79 309.356 1132.85 309.32C1133.15 309.157 1133.45 308.902 1133.79 308.519C1134.07 308.204 1134.3 307.862 1134.48 307.503C1134.75 306.95 1134.89 306.339 1134.89 305.74C1134.89 305.24 1134.79 304.75 1134.61 304.287C1134.56 304.182 1134.47 304.114 1134.37 304.114C1134.36 304.114 1134.32 304.122 1134.3 304.127C1134.13 303.564 1133.84 303.059 1133.42 302.623C1133.23 302.431 1133.02 302.286 1132.81 302.145C1132.81 302.145 1132.61 302.014 1132.53 301.963C1132.5 301.941 1132.46 301.929 1132.42 301.929C1132.35 301.929 1132.28 301.97 1132.22 302.043C1132.08 301.91 1131.92 301.788 1131.73 301.672C1131.75 301.633 1131.75 301.592 1131.75 301.548L1131.75 300.857C1131.75 300.074 1130.13 299.928 1129.39 299.901L1129.38 296.806C1132.82 297.338 1136.41 297.757 1140.09 297.995V326.1H1133.95V344.022H1131.86V342.031C1131.86 341.495 1131.47 341.058 1131 341.058H1130.78C1130.73 340.485 1130.67 339.823 1130.62 339.219C1131.18 339.02 1131.59 338.429 1131.59 337.718C1131.59 336.845 1130.98 336.139 1130.22 336.139C1129.45 336.139 1128.83 336.845 1128.83 337.718C1128.83 338.426 1129.25 339.02 1129.81 339.219C1129.76 339.828 1129.7 340.488 1129.64 341.058H1129.43C1128.95 341.058 1128.57 341.495 1128.57 342.031V344.022H1108.39V342.031C1108.39 341.495 1108.01 341.058 1107.54 341.058H1107.31C1107.26 340.485 1107.2 339.823 1107.15 339.219C1107.71 339.02 1108.13 338.429 1108.13 337.718C1108.13 336.845 1107.51 336.139 1106.75 336.139C1105.98 336.139 1105.37 336.845 1105.37 337.718C1105.37 338.426 1105.78 339.02 1106.34 339.219C1106.29 339.828 1106.23 340.488 1106.18 341.058H1105.96C1105.49 341.058 1105.11 341.495 1105.11 342.031V344.022H1084.92V342.031C1084.92 341.495 1084.54 341.058 1084.07 341.058H1083.85C1083.8 340.485 1083.74 339.823 1083.68 339.219C1084.25 339.02 1084.66 338.429 1084.66 337.718C1084.66 336.845 1084.04 336.139 1083.28 336.139C1082.52 336.139 1081.9 336.845 1081.9 337.718C1081.9 338.426 1082.31 339.02 1082.87 339.219C1082.82 339.828 1082.76 340.488 1082.71 341.058H1082.49C1082.02 341.058 1081.64 341.495 1081.64 342.031V344.022H1061.45V342.031C1061.45 341.495 1061.07 341.058 1060.6 341.058H1060.38C1060.33 340.485 1060.27 339.823 1060.21 339.219C1060.78 339.02 1061.19 338.429 1061.19 337.718C1061.19 336.845 1060.57 336.139 1059.81 336.139C1059.05 336.139 1058.43 336.845 1058.43 337.718C1058.43 338.426 1058.84 339.02 1059.41 339.219C1059.35 339.828 1059.29 340.488 1059.24 341.058H1059.02C1058.55 341.058 1058.17 341.495 1058.17 342.031V344.022H1052.94C1051.31 341.655 1049.31 339.464 1047.77 337.039C1045.96 334.179 1045.79 331.436 1042.83 329.495C1040.88 328.212 1038.59 328.409 1036.69 327.155C1032.47 324.365 1031.48 317.627 1028.61 313.513C1025.49 309.024 1020.31 306.506 1017.94 301.277C1017.46 300.209 1016.86 299.273 1016.48 298.026C1015.94 296.207 1015.72 294.373 1015.12 292.552C1014.58 290.907 1012.92 289.886 1012.59 288.268C1012.22 286.493 1013.46 284.941 1014.52 283.927C1016.76 281.773 1019.92 280.771 1022.65 279.898C1024.73 279.231 1026.85 278.731 1028.97 278.333C1029.84 278.173 1030.84 277.809 1031.69 277.773C1034.6 277.654 1036.29 281.78 1039.33 281.521C1040.27 281.441 1041.03 280.398 1040.82 279.258C1040.72 278.765 1039.99 278.416 1040.07 277.822C1040.15 277.181 1040.98 277.004 1041.4 276.825C1042.56 276.325 1043.51 276.061 1044.75 276.046C1048 276.005 1051.16 275.619 1054.3 274.559C1057.09 273.613 1059.89 274.557 1062.74 274.297C1067.42 273.873 1071.52 271.532 1075.42 268.592C1076.5 267.782 1077.67 267.03 1078.79 266.194C1085.38 267.807 1093.28 267.093 1093.95 260.87C1101.21 267.661 1120 265.01 1116.63 250.867C1121.64 251.9 1128.3 245.506 1129.27 239.651C1130.62 231.571 1125.88 231.089 1120.88 231.113C1119.79 231.123 1118.69 231.144 1117.64 231.13C1118.88 214.758 1102.8 214.973 1094.5 222.039C1089.37 211.908 1073.62 206.467 1068.26 220.574C1058.16 216.577 1053.17 209.761 1043.55 218.459C1041.64 214.093 1033.04 216.545 1030.64 218.522C1028.83 220.014 1028.79 223.514 1026.53 224.186C1022.76 225.306 1018.25 220.101 1014.34 221.813C1011.16 223.215 1008.86 234.71 1008.71 234.749C1007.65 235.047 1004.55 236.456 1001.69 238.21C997.031 241.063 993.005 244.817 999.424 246.139C992.088 253.452 994.529 265.403 1005.22 260.734C1002.56 264.505 1005.22 266.781 1008.41 267.222C1013.23 267.887 1017.8 260.862 1020.29 256.761C1019.42 261.58 1021.96 264.268 1025.24 264.974C1024.58 267.334 1023.68 269.633 1022.49 271.532C1020.77 274.278 1017.68 277.016 1014.78 277.499C1012.87 277.814 1010.95 278.591 1009.06 279.071C1005.1 280.077 1000.71 281.394 996.632 280.822C993.778 280.419 990.285 278.971 989.712 275.175C989.031 270.652 986.236 266.155 983.802 262.684C981.994 260.108 980.258 257.462 978.639 254.711C978.388 254.284 978.146 253.872 977.913 253.459C978.505 253.544 979.123 253.472 979.713 253.173C980.905 252.562 981.741 251.441 982.367 250.153C983.804 250.064 985.334 249.816 986.467 249.263C987.498 248.839 988.49 248.317 989.434 247.687C990.425 246.86 990.66 245.443 991.59 244.609C993.256 243.105 994.711 240.885 996.207 239.219C997.111 238.21 997.368 236.032 996.855 234.727C995.783 232.035 994.947 230.737 992.481 229.895C992.129 229.776 991.753 229.735 991.361 229.76C989.852 229.84 988.158 230.817 987 231.579C986.972 231.593 986.945 231.61 986.911 231.634C985.61 231.85 984.349 232.362 983.144 233.044C982.342 231.402 981.122 230.296 979.36 229.679C976.994 228.847 975.08 231.144 973.832 233.798C973.383 233.677 972.924 233.58 972.466 233.5C971.678 233.371 970.889 233.306 970.115 233.284C969.983 232.68 969.86 232.076 969.741 231.47C972.933 230.082 971.392 223.892 969.054 219.23C969.569 217.576 970.376 216.043 971.154 214.297C972.608 211.039 974.454 207.867 976.96 205.635C978.051 204.665 979.172 203.787 980.326 202.96C982.936 204.219 984.733 205.999 989.555 205.412C996.545 204.57 1004.14 202.785 1009.6 197.25C1015.82 203.809 1030.76 198.082 1034.61 190.514C1041.9 194.558 1055.74 178.474 1050.79 168.558C1047.92 162.793 1040.78 162.08 1035.96 164.321C1035.99 161.534 1034.88 159.084 1033.06 157.042C1026.3 149.44 1009.85 147.606 1006.9 156.089C1005.8 153.741 1003.04 152.724 999.847 152.615C1004.04 147.538 1006.4 141.385 1007.04 134.487C1007.31 134.174 1007.55 133.854 1007.74 133.524C1012.08 135.67 1020.43 126.878 1017.52 121.534C1016.62 119.875 1014.97 119.012 1013.19 118.747C1011.65 118.522 1010.01 118.755 1008.66 119.339C1008.8 112.22 993.593 109.215 991.301 115.063C989.582 111.706 980.797 113.501 978.815 116.065C975.991 110.36 961.55 108.279 957.452 113.365C953.312 107.238 947.527 111.386 942.513 112.332C940.605 112.683 938.19 113.54 935.905 114.806C932.588 116.64 929.541 119.332 928.692 122.568C927.58 126.861 930.283 126.099 933.579 125.73C932.764 127.668 933.229 128.702 934.301 130.361C936.97 134.518 940.59 130.674 943.362 132.403C944.724 133.259 943.752 135.19 944.972 136.721C947.428 139.789 954.021 139.636 957.053 137.907C955.901 141.446 958.288 142.338 961.588 142.217C961.775 143.907 962.068 145.562 962.473 147.133C957.331 147.364 952.731 148.967 950.326 152.276C943.328 140.878 933.721 148.438 925.341 150.073C920.306 151.058 913.161 154.349 908.116 159.268C905.354 161.966 903.223 165.155 902.408 168.718C900.6 176.633 905.112 175.27 910.612 174.654C909.277 178.219 910.067 180.133 911.879 183.225C916.403 190.946 922.389 183.922 927.047 187.182C929.333 188.782 927.735 192.331 929.798 195.183C932.253 198.565 937.11 199.879 941.713 199.751C943.194 202.298 945.142 204.49 947.031 206.625C949.751 209.698 952.987 212.121 956.294 214.19C956.646 214.411 957.007 214.631 957.372 214.852C955.763 216.174 954.203 217.853 952.402 218.971C951.196 208.686 939.54 203.224 934.247 213.373C932.07 200.789 916.078 199.877 908.961 206.821C907.949 191.138 879.984 190.594 880.801 206.836C877.302 198.235 872.61 199.38 868.389 205.836C864.472 200.085 855.392 196.937 852.663 204.866C852.09 198.771 835.277 199.651 834.602 208.206C824.806 206.018 820.985 211.459 818.706 221.639C818.16 224.064 817.485 226.531 817.167 228.622C816.535 232.845 817.384 235.51 823.849 233.068C820.242 241.95 828.575 248.143 834.048 240.18C836.314 252.22 843.71 243.849 848.786 246.108C852.096 247.573 851.833 254.117 857.928 253.076C861.662 252.443 863.05 249.855 864.054 245.899C865.864 253.006 870.344 250.973 874.488 248.218C874.851 248.839 875.22 249.452 875.621 250.03C876.517 251.32 877.571 252.739 878.609 253.869C879.77 255.128 881.586 255.444 883.013 256.12C885.637 257.367 888.19 258.463 890.875 259.434C892.517 260.025 893.947 261.253 895.458 262.208C896.988 263.179 899.108 263.285 900.8 263.63C904.369 264.357 907.813 264.91 911.431 264.867C912.74 264.85 914.048 264.712 915.357 264.75C915.938 264.767 916.73 264.704 917.273 264.969C917.719 265.187 917.95 265.706 918.504 265.825C919.493 266.033 920.618 266.104 921.785 266.036C922.746 265.98 924.047 266.662 925.012 266.87C926.207 267.125 927.41 267.331 928.616 267.503C930.095 267.717 931.595 267.588 933.068 267.93C934.088 268.166 934.247 268.17 934.194 269.262C934.152 270.162 933.972 271.321 935.126 271.406C937.556 271.581 940.064 271.862 942.464 271.224C944.189 270.766 945.704 269.424 947.455 269.121C949.07 268.842 950.982 269.568 952.591 269.805C956.243 270.346 959.997 271.348 963.388 273.08C964.956 273.883 967.042 274.661 967.916 276.548C969.085 279.071 966.738 281.409 967.857 284.135C968.536 285.794 970.216 287.17 971.218 288.618C972.307 290.192 974.354 290.607 974.204 292.884C974.17 293.403 973.213 293.888 972.882 294.162C971.887 294.987 970.832 296.081 970.507 297.541C969.658 301.349 971.695 303.865 969.881 307.661C968.587 310.37 965.898 311.871 966.091 315.357C966.416 321.207 970.789 322.735 966.439 327.659C965.873 328.302 965.37 328.874 964.898 329.427C960.714 329.323 956.578 327.73 952.285 325.207C952.285 322.653 952.285 320.096 952.285 317.542C952.285 317.118 952.09 316.548 951.848 316.274C951.81 316.23 951.771 316.189 951.733 316.145C951.708 315.667 951.678 315.112 951.648 314.598C951.939 314.767 952.151 314.542 952.151 313.982C952.151 313.293 951.835 312.373 951.44 311.93C951.046 311.488 950.725 311.692 950.727 312.381C950.725 312.941 950.94 313.647 951.232 314.13C951.205 314.576 951.173 315.063 951.147 315.488C951.109 315.444 951.071 315.401 951.033 315.359C950.789 315.088 950.592 315.214 950.592 315.638C950.592 316.162 950.592 316.686 950.592 317.21C950.592 317.227 950.592 317.242 950.592 317.256C947.075 313.368 943.485 309.73 939.809 306.409C939.809 305.885 939.809 305.361 939.809 304.837C939.809 304.413 939.604 303.882 939.347 303.654C939.307 303.617 939.266 303.581 939.228 303.544C939.198 303.067 939.166 302.516 939.137 302.014C939.444 302.13 939.669 301.864 939.667 301.303C939.667 300.614 939.334 299.753 938.918 299.385C938.504 299.018 938.167 299.283 938.167 299.969C938.167 300.53 938.392 301.194 938.697 301.623C938.668 302.079 938.636 302.572 938.608 302.996C938.57 302.962 938.53 302.926 938.49 302.892C938.233 302.666 938.025 302.829 938.025 303.253C938.025 303.792 938.025 304.333 938.025 304.871C934.354 301.667 930.621 298.703 926.82 296.059C926.82 295.535 926.82 295.011 926.82 294.488C926.82 294.063 926.604 293.568 926.339 293.384C926.296 293.357 926.254 293.328 926.213 293.299C926.184 292.826 926.152 292.28 926.12 291.783C926.438 291.846 926.672 291.538 926.672 290.978C926.674 290.289 926.324 289.488 925.893 289.195C925.46 288.899 925.11 289.224 925.11 289.913C925.11 290.473 925.343 291.097 925.664 291.47C925.632 291.931 925.6 292.428 925.57 292.86C925.528 292.831 925.488 292.804 925.445 292.775C925.18 292.596 924.961 292.794 924.961 293.221C924.961 293.76 924.961 294.301 924.961 294.839C921.203 292.326 917.396 290.041 913.54 288.072C913.54 287.548 913.54 287.024 913.54 286.5C913.54 286.076 913.318 285.617 913.044 285.479C913.001 285.457 912.957 285.435 912.914 285.414C912.885 284.945 912.851 284.407 912.819 283.912C913.148 283.922 913.388 283.575 913.388 283.015C913.388 282.326 913.029 281.584 912.583 281.363C912.14 281.142 911.779 281.523 911.779 282.212C911.779 282.772 912.019 283.357 912.348 283.677C912.316 284.143 912.282 284.647 912.252 285.084C912.21 285.062 912.168 285.04 912.125 285.021C911.849 284.885 911.626 285.12 911.626 285.545C911.626 286.083 911.626 286.621 911.626 287.158C907.696 285.249 903.73 283.58 899.728 282.231C899.728 281.707 899.728 281.183 899.728 280.659C899.728 280.233 899.501 279.813 899.221 279.718C899.176 279.704 899.132 279.689 899.089 279.675C899.057 279.214 899.023 278.68 898.989 278.193C899.327 278.147 899.573 277.761 899.573 277.198C899.573 276.509 899.206 275.828 898.752 275.68C898.298 275.532 897.928 275.976 897.928 276.665C897.928 277.222 898.175 277.768 898.51 278.035C898.476 278.506 898.442 279.015 898.412 279.456C898.368 279.442 898.325 279.427 898.281 279.413C898.001 279.323 897.774 279.597 897.774 280.022C897.774 280.56 897.774 281.096 897.774 281.635C893.763 280.376 889.727 279.357 885.674 278.658C885.674 278.134 885.674 277.611 885.674 277.087C885.674 276.662 885.444 276.277 885.16 276.23C885.115 276.223 885.071 276.216 885.026 276.209C884.997 275.75 884.96 275.224 884.927 274.741C885.268 274.639 885.517 274.212 885.517 273.652C885.517 272.963 885.143 272.342 884.685 272.267C884.224 272.194 883.853 272.696 883.853 273.385C883.853 273.946 884.101 274.45 884.441 274.661C884.407 275.137 884.373 275.653 884.343 276.097C884.298 276.09 884.254 276.085 884.209 276.078C883.925 276.034 883.696 276.344 883.696 276.769C883.696 277.305 883.696 277.841 883.696 278.379C879.638 277.771 875.568 277.404 871.496 277.358C871.496 276.832 871.496 276.308 871.496 275.784C871.496 275.36 871.265 275.013 870.98 275.01C870.936 275.01 870.891 275.01 870.847 275.01C870.815 274.557 870.779 274.035 870.747 273.557C871.089 273.402 871.337 272.937 871.339 272.376C871.339 271.687 870.963 271.125 870.503 271.125C870.04 271.125 869.667 271.687 869.667 272.374C869.667 272.934 869.917 273.4 870.257 273.557C870.225 274.04 870.189 274.559 870.159 275.01C870.115 275.01 870.07 275.01 870.026 275.01C869.739 275.013 869.51 275.36 869.51 275.784C869.51 276.32 869.51 276.859 869.51 277.395C865.438 277.436 861.367 277.722 857.31 278.326C857.31 277.802 857.31 277.276 857.31 276.752C857.31 276.327 857.079 276.017 856.797 276.061C856.752 276.068 856.705 276.075 856.661 276.082C856.631 275.634 856.595 275.12 856.563 274.647C856.903 274.436 857.153 273.931 857.153 273.368C857.151 272.682 856.78 272.177 856.319 272.253C855.861 272.325 855.487 272.946 855.487 273.635C855.487 274.195 855.735 274.62 856.075 274.724C856.041 275.209 856.007 275.736 855.977 276.192C855.933 276.199 855.888 276.206 855.844 276.213C855.562 276.26 855.33 276.645 855.33 277.07C855.33 277.606 855.33 278.144 855.33 278.68C851.279 279.374 847.239 280.31 843.23 281.562C843.23 281.038 843.23 280.514 843.23 279.99C843.23 279.566 843.003 279.291 842.723 279.381C842.678 279.396 842.634 279.41 842.589 279.422C842.56 278.981 842.526 278.472 842.492 278.004C842.829 277.739 843.075 277.193 843.075 276.631C843.075 275.944 842.708 275.5 842.252 275.648C841.798 275.794 841.431 276.478 841.431 277.164C841.431 277.725 841.677 278.11 842.012 278.159C841.978 278.651 841.944 279.182 841.915 279.643C841.87 279.658 841.828 279.672 841.783 279.687C841.503 279.779 841.276 280.199 841.276 280.626C841.276 281.162 841.276 281.7 841.276 282.236C837.278 283.58 833.303 285.166 829.375 287.07C829.375 286.546 829.375 286.022 829.375 285.498C829.375 285.074 829.152 284.836 828.879 284.972C828.834 284.992 828.792 285.013 828.747 285.035C828.717 284.599 828.684 284.092 828.652 283.631C828.981 283.311 829.223 282.726 829.223 282.163C829.223 281.477 828.862 281.094 828.418 281.314C827.973 281.535 827.614 282.275 827.614 282.964C827.614 283.524 827.854 283.871 828.181 283.864C828.149 284.361 828.115 284.899 828.085 285.365C828.043 285.387 828 285.406 827.958 285.428C827.684 285.566 827.461 286.025 827.461 286.449C827.461 286.988 827.461 287.526 827.461 288.062C823.548 290.058 819.673 292.292 815.86 294.846C815.86 294.323 815.86 293.799 815.86 293.275C815.86 292.85 815.643 292.651 815.376 292.831C815.336 292.86 815.293 292.887 815.251 292.916C815.221 292.484 815.187 291.984 815.157 291.528C815.478 291.155 815.711 290.527 815.711 289.966C815.711 289.277 815.361 288.955 814.93 289.251C814.498 289.544 814.15 290.345 814.15 291.034C814.15 291.594 814.383 291.899 814.701 291.839C814.669 292.341 814.638 292.884 814.608 293.355C814.568 293.384 814.525 293.413 814.485 293.44C814.217 293.624 814.003 294.119 814.003 294.543C814.003 295.082 814.003 295.62 814.003 296.159C810.209 298.805 806.466 301.691 802.801 304.893C802.801 304.369 802.801 303.845 802.801 303.321C802.801 302.897 802.593 302.734 802.336 302.96C802.296 302.996 802.255 303.03 802.215 303.067C802.187 302.64 802.156 302.145 802.126 301.694C802.434 301.267 802.659 300.6 802.659 300.037C802.659 299.351 802.321 299.086 801.907 299.455C801.491 299.824 801.158 300.685 801.158 301.374C801.158 301.934 801.381 302.198 801.687 302.084C801.657 302.591 801.625 303.142 801.597 303.615C801.557 303.651 801.519 303.688 801.479 303.722C801.222 303.952 801.016 304.483 801.016 304.908C801.016 305.449 801.016 305.987 801.016 306.528C797.375 309.822 793.797 313.358 790.312 317.21C790.312 316.686 790.312 316.162 790.312 315.638C790.312 315.214 790.115 315.088 789.871 315.359C789.833 315.401 789.795 315.444 789.756 315.488C789.729 315.063 789.699 314.576 789.671 314.13C789.962 313.647 790.177 312.941 790.177 312.381C790.177 311.692 789.856 311.488 789.464 311.93C789.069 312.373 788.753 313.293 788.753 313.982C788.753 314.542 788.963 314.767 789.254 314.598C789.226 315.112 789.196 315.667 789.171 316.145C789.133 316.189 789.094 316.23 789.056 316.274C788.814 316.548 788.617 317.118 788.617 317.542C788.617 319.129 788.617 320.715 788.617 322.301L770.062 322.328L770.055 316.713L769.697 316.715L769.656 280.182L778.102 280.17L778.089 268.607C779.046 268.304 779.87 268.015 780.532 267.746C794.293 262.184 808.286 252.596 814.009 234.116C802.389 252.71 775.764 249.237 757.626 245.933L757.62 240.221H757.359L757.319 203.687L764.079 203.678L764.063 187.628C773.75 181.952 783.753 177.574 788.035 163.736C777.816 180.094 753.705 176.041 738.57 173.198L738.526 131.13L747.617 131.118L747.602 117.556C754.585 113.571 760.966 108.15 763.978 98.4164C755.05 112.705 733.191 107.988 721.097 105.722C706.309 102.964 673.007 91.3727 658.458 55.739C657.786 55.7487 657.162 55.7536 656.546 55.7536L656.544 53.624C659.388 52.9375 661.52 50.1142 661.516 46.7306C661.512 43.3494 659.375 40.5309 656.529 39.8517L656.527 37.1497C658.441 36.5045 659.844 34.5374 659.84 32.187C659.837 29.8343 658.431 27.8744 656.517 27.2341L656.487 0.388184L653.83 0.390609L653.86 27.2365C651.946 27.8817 650.543 29.8488 650.545 32.1992C650.549 34.5519 651.954 36.5118 653.87 37.1521L653.875 39.8566C651.029 40.543 648.898 43.3664 648.903 46.75C648.905 50.1312 651.044 52.9497 653.889 53.6264L653.892 55.756C653.289 55.756 652.663 55.7536 651.984 55.7487C636.134 91.4236 602.387 103.253 587.779 105.911C576.952 107.895 555.515 112.987 546.556 98.7245C550.006 109.787 555.621 115.354 562.974 119.422L562.989 131.377L572.477 131.365L572.521 172.97C559.169 175.437 533.454 181.329 522.64 164.112C527.319 179.117 535.996 184.868 546.666 189.576L546.683 203.986L553.826 203.976L553.87 245.635C537.376 248.751 509.08 254.085 496.819 234.564C502.582 253.028 514.982 262.963 528.359 268.36C528.614 268.461 528.883 268.563 529.165 268.668L529.178 280.521L537.611 280.509L537.658 322.655L516.435 322.687L516.473 356.785H485.498V217.481C496.717 216.438 503.255 213.22 503.255 213.22C505.81 212.347 508.624 209.943 508.764 206.729C508.791 206.096 508.344 205.557 507.76 205.526C507.189 205.497 506.684 205.987 506.657 206.62C506.559 208.861 504.104 210.426 502.625 211.029C501.205 211.607 499.183 211.811 497.494 211.711C491.98 210.171 483.749 207.6 478.448 204.701C459.424 194.298 444.187 172.49 444.187 172.49H441.246V169.439C442.993 167.27 444.274 160.619 444.274 158.553C444.274 156.072 442.428 154.061 440.149 154.061C437.872 154.061 436.024 156.072 436.024 158.553C436.024 160.619 437.308 167.268 439.052 169.439V172.49H436.113C436.113 172.49 421.933 194.609 401.241 205.354C395.919 208.119 389.914 210.076 385.218 211.347C385.092 211.338 384.965 211.345 384.84 211.384C383.129 211.937 379.749 211.874 377.676 211.029C376.195 210.426 373.739 208.861 373.642 206.62C373.614 205.987 373.111 205.497 372.538 205.526C371.957 205.557 371.507 206.096 371.534 206.729C371.675 209.943 374.488 212.347 377.043 213.22C377.043 213.22 384.995 216.4 394.803 217.464V356.785H380.439V343.413H378.709V327.827C378.709 327.291 378.329 326.854 377.858 326.854H377.638C377.587 326.284 377.529 325.624 377.474 325.015C378.036 324.814 378.448 324.222 378.448 323.514C378.448 322.641 377.831 321.935 377.069 321.935C376.307 321.935 375.687 322.641 375.687 323.514C375.687 324.225 376.101 324.816 376.666 325.015C376.613 325.619 376.553 326.282 376.502 326.854H376.279C375.808 326.854 375.426 327.291 375.426 327.827V329.818H355.099V327.827C355.099 327.291 354.717 326.854 354.246 326.854H354.025C353.972 326.282 353.915 325.619 353.86 325.015C354.424 324.816 354.838 324.225 354.838 323.514C354.838 322.641 354.221 321.935 353.457 321.935C352.695 321.935 352.077 322.641 352.077 323.514C352.077 324.222 352.489 324.814 353.053 325.015C352.998 325.624 352.939 326.284 352.888 326.854H352.669C352.198 326.854 351.816 327.291 351.816 327.827V329.818H331.631V327.827C331.631 327.291 331.249 326.854 330.778 326.854H330.557C330.504 326.282 330.447 325.619 330.392 325.015C330.956 324.816 331.37 324.225 331.37 323.514C331.37 322.641 330.753 321.935 329.989 321.935C329.624 321.935 329.295 322.105 329.049 322.372V309.274H330.358C330.825 305.482 332.928 302.482 336.245 301.946V301.165H340.661V295.123H343.657C347.428 295.123 350.575 291.288 351.583 286.071C354.594 286.037 357.351 285.95 359.819 285.816L359.829 287.936C359.203 287.96 358.624 288.043 358.18 288.169C357.482 288.368 357.145 288.654 357.147 289.047L357.151 289.818C357.151 289.872 357.16 289.923 357.179 289.969C356.988 290.085 356.816 290.216 356.663 290.362C356.608 290.296 356.532 290.257 356.449 290.257C356.394 290.257 356.336 290.277 356.29 290.313L356.237 290.352C356.196 290.381 356.154 290.403 356.111 290.425C356.065 290.449 356.024 290.471 355.982 290.497C355.785 290.626 355.608 290.776 355.392 290.966C354.864 291.487 354.494 292.096 354.288 292.78C354.263 292.773 354.223 292.765 354.212 292.765C354.095 292.765 353.991 292.843 353.943 292.964C353.724 293.508 353.614 294.075 353.616 294.648C353.622 296.176 354.433 297.631 355.842 298.64C356.107 298.829 356.372 298.994 356.633 299.132C356.763 299.2 356.892 299.261 357.02 299.314C357.075 299.336 357.13 299.351 357.189 299.358C357.189 299.358 357.191 300.428 357.191 300.435C357.191 300.449 357.194 300.466 357.198 300.483C357.219 300.631 357.308 300.745 357.419 300.777C357.552 300.942 357.994 301.228 359.882 301.26L359.88 302.038C359.691 302.079 359.53 302.227 359.454 302.436C359.43 302.499 359.418 302.567 359.411 302.635C359.207 302.652 359.027 302.793 358.938 303.004C358.806 302.921 358.671 302.88 358.528 302.88C358.429 302.88 358.327 302.902 358.225 302.943C357.839 303.096 357.601 303.498 357.624 303.971C357.646 304.442 357.919 304.813 358.32 304.917C358.393 304.937 358.465 304.949 358.533 304.949C358.7 304.949 358.836 304.891 358.946 304.82C359.036 305.029 359.214 305.17 359.418 305.189C359.422 305.259 359.439 305.33 359.462 305.395C359.536 305.592 359.685 305.73 359.88 305.781L359.878 306.191C359.827 306.215 359.783 306.256 359.749 306.31C359.64 306.361 359.568 306.482 359.568 306.622V307.069C359.568 307.149 359.592 307.224 359.636 307.285C359.64 307.304 359.647 307.321 359.655 307.34L359.519 311.51C359.517 311.605 359.547 311.694 359.602 311.76C359.657 311.823 359.736 311.862 359.814 311.862H360.727C360.805 311.862 360.884 311.823 360.939 311.76C360.994 311.694 361.026 311.605 361.022 311.51L360.888 307.35C360.897 307.328 360.905 307.304 360.909 307.28C360.952 307.222 360.973 307.146 360.973 307.069V306.622C360.973 306.482 360.901 306.361 360.793 306.31C360.763 306.261 360.72 306.222 360.667 306.198V305.81C360.856 305.769 361.015 305.623 361.09 305.417C361.115 305.352 361.13 305.284 361.134 305.213C361.34 305.194 361.523 305.053 361.612 304.84C361.714 304.9 361.845 304.946 362.009 304.946C362.011 304.946 362.072 304.944 362.076 304.944C362.344 304.922 362.586 304.769 362.741 304.524C362.947 304.211 362.978 303.819 362.828 303.472C362.673 303.118 362.352 302.887 362.017 302.887C361.881 302.887 361.748 302.924 361.622 302.994C361.537 302.776 361.353 302.63 361.143 302.613C361.139 302.543 361.124 302.472 361.098 302.404C361.024 302.196 360.861 302.053 360.667 302.014L360.67 301.252C361.257 301.238 361.784 301.192 362.195 301.121C362.787 301.024 363.074 300.898 363.18 300.685C363.265 300.622 363.318 300.517 363.318 300.401C363.318 300.399 363.314 299.237 363.314 299.237C363.314 299.125 363.28 299.023 363.208 298.931C363.286 298.904 363.371 298.866 363.466 298.815C363.5 298.798 363.534 298.778 363.568 298.759C363.619 298.873 363.719 298.941 363.831 298.941C363.848 298.941 363.918 298.929 363.933 298.921C363.997 298.895 364.056 298.868 364.12 298.836C364.171 298.812 364.226 298.79 364.294 298.764C364.379 298.732 364.455 298.701 364.527 298.659C364.867 298.473 365.204 298.182 365.593 297.747C365.913 297.388 366.178 296.998 366.38 296.59C366.69 295.96 366.851 295.264 366.849 294.58C366.847 294.01 366.739 293.454 366.524 292.923C366.475 292.804 366.369 292.727 366.255 292.727C366.242 292.727 366.202 292.734 366.174 292.741C365.983 292.101 365.646 291.526 365.17 291.029C364.962 290.808 364.716 290.643 364.476 290.485C364.476 290.485 364.254 290.335 364.165 290.277C364.124 290.253 364.08 290.238 364.037 290.238C363.954 290.238 363.874 290.284 363.808 290.367C363.651 290.216 363.466 290.078 363.25 289.944C363.267 289.901 363.275 289.852 363.275 289.804L363.273 289.015C363.269 288.123 361.427 287.958 360.583 287.929L360.574 285.773C374.393 284.96 379.69 282.867 379.69 282.867C382.854 281.732 386.338 278.61 386.51 274.431C386.544 273.606 385.988 272.907 385.268 272.869C384.56 272.83 383.936 273.465 383.902 274.288C383.781 277.201 380.74 279.236 378.909 280.019C376.608 281.001 373.022 281.166 370.775 280.674C367.496 279.663 363.63 278.244 359.704 276.301C347.118 270.07 327.455 254.25 327.455 254.25H317.263V240.095C320.938 239.966 323.886 236.6 324.002 232.398C336.132 230.795 343.124 227.184 343.124 227.184C346.288 226.048 349.773 222.927 349.945 218.748C349.979 217.923 349.423 217.224 348.703 217.186C347.994 217.147 347.371 217.782 347.337 218.604C347.216 221.52 344.175 223.553 342.343 224.336C340.506 225.122 337.849 225.379 335.706 225.204C328.868 223.235 318.835 219.958 312.412 216.111C300.237 208.822 274.44 179.364 270.518 174.848V161.25C270.518 160.294 269.839 159.518 269.001 159.518H268.784C268.424 156.765 267.817 152.198 267.511 150.102C267.322 148.805 265.724 148.763 265.54 150.102C265.283 151.972 264.651 156.692 264.273 159.518H264.025C263.186 159.518 262.507 160.294 262.507 161.25V165.488H259.674C258.354 165.488 257.285 166.71 257.285 168.219V174.244H120.601V168.219C120.601 166.71 119.531 165.488 118.211 165.488H115.376V161.25C115.376 160.294 114.697 159.518 113.859 159.518H113.613C113.233 156.692 112.601 151.972 112.344 150.102C112.161 148.763 110.561 148.805 110.373 150.102C110.067 152.198 109.462 156.765 109.099 159.518H108.885C108.047 159.518 107.368 160.294 107.368 161.25V175.614C101.838 182.168 77.5018 210.549 65.3445 216.962C58.5497 220.545 50.9209 223.123 45.0555 224.797C45.0491 224.799 45.0428 224.797 45.0364 224.799C42.9186 225.517 38.7339 225.432 36.1662 224.336C34.3349 223.553 31.2961 221.52 31.1751 218.604C31.139 217.782 30.5173 217.147 29.8085 217.186C29.087 217.224 28.531 217.923 28.565 218.748C28.739 222.927 32.2234 226.048 35.3853 227.184C35.3853 227.184 43.7165 230.684 54.5008 232.321C54.5857 236.643 57.6627 240.121 61.4633 240.121H62.4437V254.25H51.0567C51.0567 254.25 31.5677 271.023 18.3494 276.922C15.092 278.377 11.6076 279.561 8.49242 280.48C8.48605 280.482 8.47969 280.48 8.4712 280.482C6.35338 281.2 2.16868 281.115 -0.396892 280.019C-2.23035 279.236 -5.26914 277.201 -5.3901 274.288C-5.42617 273.465 -6.04794 272.83 -6.75671 272.869C-7.47821 272.907 -8.03419 273.606 -8.00023 274.431C-7.82622 278.61 -4.3418 281.732 -1.17993 282.867C-1.17993 282.867 4.39896 285.045 18.1966 285.821L18.2051 287.936C17.5812 287.96 17.0019 288.043 16.5584 288.169C15.8602 288.368 15.5228 288.654 15.5249 289.047L15.527 289.818C15.527 289.872 15.5377 289.923 15.5568 289.969C15.3658 290.085 15.1939 290.216 15.0411 290.362C14.9859 290.296 14.9095 290.257 14.8268 290.257C14.7695 290.257 14.7143 290.277 14.6655 290.313L14.6146 290.352C14.5742 290.381 14.5318 290.403 14.4894 290.425C14.4427 290.449 14.4024 290.471 14.3599 290.497C14.1626 290.626 13.9864 290.776 13.77 290.966C13.2416 291.487 12.8702 292.096 12.6665 292.78C12.641 292.773 12.6007 292.765 12.5901 292.765C12.4734 292.765 12.3673 292.843 12.3206 292.964C12.0999 293.508 11.9917 294.075 11.9938 294.648C11.9981 296.176 12.8108 297.631 14.2199 298.64C14.4851 298.829 14.7504 298.994 15.0114 299.132C15.1408 299.2 15.2703 299.261 15.3955 299.314C15.4528 299.336 15.5079 299.351 15.5652 299.358C15.5652 299.358 15.5695 300.428 15.5695 300.435C15.5695 300.449 15.5716 300.466 15.5759 300.483C15.5971 300.631 15.6841 300.745 15.7965 300.777C15.9302 300.942 16.3716 301.228 18.2581 301.26V302.038C18.0693 302.079 17.908 302.227 17.8316 302.436C17.8083 302.499 17.7955 302.567 17.7892 302.635C17.5854 302.652 17.4051 302.793 17.3159 303.004C17.1823 302.921 17.0486 302.88 16.9064 302.88C16.8066 302.88 16.7048 302.902 16.6029 302.943C16.2146 303.096 15.979 303.498 16.0003 303.971C16.0236 304.442 16.2974 304.813 16.6963 304.917C16.7706 304.937 16.8427 304.949 16.9106 304.949C17.0762 304.949 17.2141 304.891 17.3244 304.82C17.4136 305.029 17.5918 305.17 17.7955 305.189C17.7998 305.259 17.8167 305.33 17.8401 305.395C17.9144 305.592 18.0629 305.73 18.2581 305.781L18.256 306.191C18.2051 306.215 18.1605 306.256 18.1266 306.31C18.0183 306.361 17.9462 306.482 17.9462 306.622V307.069C17.9462 307.149 17.9695 307.224 18.0141 307.285C18.0183 307.304 18.0247 307.321 18.0332 307.34L17.8974 311.51C17.8953 311.605 17.925 311.694 17.9801 311.76C18.0353 311.823 18.1138 311.862 18.1924 311.862H19.1027C19.1834 311.862 19.2619 311.823 19.317 311.76C19.3722 311.694 19.4019 311.605 19.3998 311.51L19.2661 307.35C19.2746 307.328 19.281 307.304 19.2873 307.28C19.3298 307.222 19.351 307.146 19.351 307.069V306.622C19.351 306.482 19.2789 306.361 19.1706 306.31C19.1409 306.261 19.0985 306.222 19.0454 306.198V305.81C19.2343 305.769 19.3934 305.623 19.4677 305.417C19.4932 305.352 19.508 305.284 19.5123 305.213C19.7181 305.194 19.9006 305.053 19.9897 304.84C20.0916 304.9 20.221 304.946 20.3866 304.946C20.3887 304.946 20.4502 304.944 20.4545 304.944C20.7218 304.922 20.9638 304.769 21.1187 304.524C21.3245 304.211 21.3563 303.819 21.2057 303.472C21.0508 303.118 20.7303 302.887 20.3929 302.887C20.2592 302.887 20.1256 302.924 20.0004 302.994C19.9155 302.776 19.7308 302.63 19.5208 302.613C19.5144 302.543 19.5017 302.472 19.4762 302.404C19.4019 302.196 19.2385 302.053 19.0454 302.014L19.0475 301.252C19.6354 301.238 20.1616 301.192 20.5733 301.121C21.1632 301.024 21.4518 300.898 21.5579 300.685C21.6428 300.622 21.6959 300.517 21.6959 300.401C21.6959 300.399 21.6916 299.237 21.6916 299.237C21.6916 299.125 21.6556 299.023 21.5855 298.931C21.664 298.904 21.7489 298.866 21.8444 298.815C21.8784 298.798 21.9123 298.778 21.9463 298.759C21.9972 298.873 22.0969 298.941 22.2094 298.941C22.2264 298.941 22.2943 298.929 22.3113 298.921C22.3728 298.895 22.4344 298.868 22.498 298.836C22.5489 298.812 22.6041 298.79 22.672 298.764C22.7548 298.732 22.8333 298.701 22.9033 298.659C23.2429 298.473 23.5824 298.182 23.9707 297.747C24.2912 297.388 24.5564 296.998 24.758 296.59C25.0678 295.96 25.2291 295.264 25.227 294.58C25.2249 294.01 25.1145 293.454 24.9023 292.923C24.8535 292.804 24.7474 292.727 24.6328 292.727C24.6201 292.727 24.5798 292.734 24.5522 292.741C24.3612 292.101 24.0238 291.526 23.5484 291.029C23.3405 290.808 23.0943 290.643 22.8545 290.485C22.8545 290.485 22.6317 290.335 22.5405 290.277C22.5023 290.253 22.4577 290.238 22.4131 290.238C22.3325 290.238 22.2519 290.284 22.1861 290.367C22.029 290.216 21.8444 290.078 21.628 289.944C21.6449 289.901 21.6534 289.852 21.6534 289.804L21.6513 289.015C21.6471 288.123 19.8051 287.958 18.9605 287.929L18.9521 285.857C21.3648 285.981 24.0195 286.061 26.931 286.081C27.939 291.293 31.0839 295.123 34.8526 295.123H37.8511V301.165H41.0469V301.946C44.3658 302.482 46.4667 305.482 46.9357 309.274H48.245V321.966C47.5489 322.047 46.9972 322.697 46.9972 323.514C46.9972 324.222 47.4089 324.814 47.9712 325.015C47.9182 325.624 47.8588 326.284 47.8078 326.854H47.5893C47.1182 326.854 46.7362 327.291 46.7362 327.827V329.818H26.5511V327.827C26.5511 327.291 26.1692 326.854 25.6981 326.854H25.4774C25.4243 326.282 25.367 325.619 25.3119 325.015C25.8763 324.816 26.2901 324.225 26.2901 323.514C26.2901 322.641 25.6726 321.935 24.9108 321.935C24.1469 321.935 23.5293 322.641 23.5293 323.514C23.5293 324.222 23.941 324.814 24.5055 325.015C24.4503 325.624 24.3909 326.284 24.34 326.854H24.1214C23.6503 326.854 23.2683 327.291 23.2683 327.827V329.818H3.08329V327.827C3.08329 327.291 2.70132 326.854 2.23234 326.854H2.00952C1.95859 326.282 1.89918 325.619 1.844 325.015C2.40847 324.816 2.82227 324.225 2.82227 323.514C2.82227 322.641 2.20475 321.935 1.44293 321.935C0.678992 321.935 0.0614726 322.641 0.0614726 323.514C0.0614726 324.222 0.473153 324.814 1.03762 325.015C0.982448 325.624 0.923029 326.284 0.8721 326.854H0.653528C0.18243 326.854 -0.19954 327.291 -0.19954 327.827V343.413H-1.9269V411.767H815.639V360.586C816.008 327.412 841.083 300.639 871.976 300.639C902.546 300.639 927.412 326.856 928.289 359.548V411.767H1364V356.785H1319.22V326.1ZM1059.39 267.666C1064.86 270.159 1070.43 271.389 1070.84 262.279C1072.06 263.596 1074.28 264.794 1076.88 265.643C1076.64 265.912 1076.4 266.172 1076.16 266.417C1072.09 270.564 1067.05 271.389 1061.86 271.821C1060.94 271.896 1056.84 272.233 1057.6 269.827C1057.84 269.092 1058.59 268.35 1059.39 267.666ZM1027.83 268.258C1027.98 267.217 1028.02 266.167 1027.98 265.117C1030.88 264.828 1033.81 263.193 1035.23 260.285C1037.24 266.14 1049.43 272.859 1050.62 263.736C1052.37 264.049 1055.06 265.568 1057.91 266.965C1057.87 267.021 1057.83 267.081 1057.79 267.135C1052.85 273.916 1044.19 273.458 1037.29 273.254C1034.46 273.172 1031.4 274.183 1028.63 273.752C1025.9 273.325 1027.53 270.273 1027.83 268.258ZM903.692 256.162C901.742 255.977 899.764 255.8 897.878 255.143C896.091 254.519 894.885 253.375 893.693 251.783C892.939 250.779 891.248 249.191 890.813 251.361C890.618 252.344 891.516 252.278 891.853 252.856C892.167 253.387 892.235 254.684 891.815 255.186C891.051 256.103 889.725 255.005 888.933 254.755C885.185 253.573 881.039 251.822 878.314 248.388C877.837 247.786 877.408 247.143 876.984 246.493C878.446 245.475 879.774 244.599 880.801 244.322C887.259 242.576 892.458 250.648 898.921 246.605C900.536 249.957 903.639 251.696 907.168 252.181C907.507 252.979 907.887 253.869 907.864 254.721C907.794 257.413 905.063 256.29 903.692 256.162ZM410.88 226.301H401.301V217.814C404.847 217.814 408.008 217.814 410.88 217.814V226.301ZM412.569 217.814C418.01 217.814 422.286 217.814 425.753 217.814V226.301H412.569V217.814ZM401.301 228.142H410.88V237.921H401.301V228.142ZM412.569 228.142H425.753V237.921H412.569V228.142ZM467.524 228.142V237.921H454.339V228.142H467.524ZM454.339 226.301V217.814C457.781 217.814 462.053 217.814 467.524 217.814V226.301H454.339ZM478.998 237.921H469.213V228.142H478.998V237.921ZM454.339 247.514V239.762H467.524V247.514H454.339ZM427.442 247.514V239.762H436.9V247.514H427.442ZM443.398 239.762H452.65V247.514H443.398V239.762ZM452.65 237.921H443.398V228.142H452.65V237.921ZM436.9 237.921H427.442V228.142H436.9V237.921ZM425.753 239.762V247.514H412.569V239.762H425.753ZM469.213 247.514V239.762H478.998V247.514H469.213ZM478.503 217.814C478.673 217.814 478.83 217.806 478.998 217.804V226.301H469.213V217.814C472.001 217.814 475.063 217.814 478.503 217.814ZM452.65 217.814V226.301H443.398V217.814C445.885 217.814 448.701 217.814 452.65 217.814ZM436.9 217.814V226.301H427.442V217.814C431.493 217.814 434.388 217.814 436.9 217.814ZM401.301 239.762H410.88V247.514H401.301V239.762ZM360.054 289.738C360.061 289.738 360.067 289.738 360.073 289.738C360.073 289.748 360.073 289.76 360.075 289.77C360.067 289.76 360.061 289.748 360.054 289.738ZM18.43 289.738C18.4385 289.738 18.4449 289.738 18.4512 289.738C18.4512 289.748 18.4512 289.76 18.4534 289.77C18.4449 289.76 18.4385 289.748 18.43 289.738ZM54.9443 309.274H56.2536C56.7226 305.482 58.8234 302.482 62.1402 301.946V301.165H91.4819V301.946C94.7987 302.482 96.8996 305.482 97.3685 309.274H98.6778V329.818H96.9547V327.827C96.9547 327.291 96.5728 326.854 96.1017 326.854H95.8789C95.8279 326.282 95.7685 325.619 95.7155 325.015C96.2799 324.816 96.6937 324.225 96.6937 323.514C96.6937 322.641 96.0762 321.935 95.3123 321.935C94.5504 321.935 93.9329 322.641 93.9329 323.514C93.9329 324.222 94.3446 324.814 94.9069 325.015C94.8518 325.624 94.7945 326.284 94.7436 326.854H94.525C94.0539 326.854 93.6719 327.291 93.6719 327.827V329.818H73.4869V327.827C73.4869 327.291 73.1049 326.854 72.6338 326.854H72.4131C72.3601 326.282 72.3006 325.619 72.2476 325.015C72.8121 324.816 73.2259 324.225 73.2259 323.514C73.2259 322.641 72.6083 321.935 71.8444 321.935C71.0826 321.935 70.4651 322.641 70.4651 323.514C70.4651 324.222 70.8767 324.814 71.4391 325.015C71.3839 325.624 71.3266 326.284 71.2757 326.854H71.0571C70.586 326.854 70.204 327.291 70.204 327.827V329.818H54.9443V309.274ZM54.9443 331.344C58.0234 331.375 59.2479 333.342 59.7359 335.986H54.9443V331.344ZM70.204 335.986H60.6463V335.872C61.1577 333.265 62.4734 331.336 65.4867 331.336C68.3642 331.336 69.6332 333.012 70.204 335.343V335.986ZM73.4869 335.986V335.935C73.9898 333.294 75.3012 331.336 78.34 331.336C81.4764 331.336 82.7115 333.32 83.2017 335.986H73.4869ZM93.6719 335.986H84.1141V335.872C84.6256 333.265 85.9412 331.336 88.9546 331.336C91.8321 331.336 93.1011 333.012 93.6719 335.346V335.986ZM105.377 309.274H106.687C107.155 305.482 109.256 302.482 112.573 301.946V301.165H149.227V301.946C152.544 302.482 154.647 305.482 155.114 309.274H156.425V329.818H143.89V327.827C143.89 327.291 143.508 326.854 143.037 326.854H142.815C142.764 326.282 142.704 325.619 142.651 325.015C143.216 324.816 143.629 324.225 143.629 323.514C143.629 322.641 143.01 321.935 142.248 321.935C141.486 321.935 140.869 322.641 140.869 323.514C140.869 324.222 141.28 324.814 141.843 325.015C141.788 325.624 141.73 326.284 141.679 326.854H141.459C140.987 326.854 140.608 327.291 140.608 327.827V329.818H120.423V327.827C120.423 327.291 120.041 326.854 119.57 326.854H119.347C119.296 326.282 119.236 325.619 119.183 325.015C119.748 324.816 120.162 324.225 120.162 323.514C120.162 322.641 119.544 321.935 118.78 321.935C118.018 321.935 117.401 322.641 117.401 323.514C117.401 324.222 117.812 324.814 118.375 325.015C118.32 325.624 118.262 326.284 118.211 326.854H117.991C117.52 326.854 117.14 327.291 117.14 327.827V329.818H105.377V309.274ZM281.413 335.986H278.614V331.661C280.18 332.251 280.99 333.616 281.413 335.346V335.986ZM271.916 335.986H271.857V335.872C271.872 335.787 271.897 335.71 271.916 335.625V335.986ZM270.607 309.274H271.916V329.818H261.228V327.827C261.228 327.291 260.846 326.854 260.377 326.854H260.154C260.103 326.282 260.044 325.619 259.988 325.015C260.555 324.816 260.967 324.225 260.967 323.514C260.967 322.641 260.349 321.935 259.587 321.935C258.823 321.935 258.206 322.641 258.206 323.514C258.206 324.222 258.617 324.814 259.182 325.015C259.127 325.624 259.067 326.284 259.019 326.854H258.798C258.327 326.854 257.945 327.291 257.945 327.827V329.818H237.76V327.827C237.76 327.291 237.38 326.854 236.909 326.854H236.686C236.635 326.282 236.576 325.619 236.52 325.015C237.087 324.816 237.499 324.225 237.499 323.514C237.499 322.641 236.881 321.935 236.119 321.935C235.358 321.935 234.738 322.641 234.738 323.514C234.738 324.222 235.15 324.814 235.714 325.015C235.659 325.624 235.6 326.284 235.551 326.854H235.33C234.859 326.854 234.477 327.291 234.477 327.827V329.818H220.868V309.274H222.177C222.646 305.482 224.747 302.482 228.066 301.946V301.165H264.718V301.946C268.037 302.482 270.138 305.482 270.607 309.274ZM270.945 335.986H261.228V335.935C261.731 333.294 263.042 331.336 266.081 331.336C269.219 331.336 270.452 333.32 270.945 335.986ZM257.945 335.986H248.389V335.872C248.901 333.265 250.214 331.336 253.23 331.336C256.107 331.336 257.374 333.012 257.945 335.346V335.986ZM247.477 335.986H237.76V335.935C238.263 333.294 239.574 331.336 242.613 331.336C245.751 331.336 246.984 333.32 247.477 335.986ZM234.477 335.986H224.921V335.872C225.433 333.265 226.746 331.336 229.762 331.336C232.639 331.336 233.906 333.012 234.477 335.346V335.986ZM220.868 331.606C222.753 332.219 223.621 333.881 224.009 335.986H220.868V331.606ZM212.862 309.274H214.171V327.354C214.025 327.06 213.757 326.854 213.441 326.854H213.218C213.167 326.282 213.108 325.619 213.053 325.015C213.619 324.816 214.031 324.225 214.031 323.514C214.031 322.641 213.413 321.935 212.652 321.935C211.89 321.935 211.27 322.641 211.27 323.514C211.27 324.222 211.684 324.814 212.246 325.015C212.191 325.624 212.132 326.284 212.083 326.854H211.862C211.391 326.854 211.009 327.291 211.009 327.827V329.818H190.824V327.827C190.824 327.291 190.444 326.854 189.973 326.854H189.75C189.699 326.282 189.64 325.619 189.587 325.015C190.151 324.816 190.565 324.225 190.565 323.514C190.565 322.641 189.946 321.935 189.184 321.935C188.422 321.935 187.802 322.641 187.802 323.514C187.802 324.222 188.216 324.814 188.778 325.015C188.723 325.624 188.666 326.284 188.615 326.854H188.394C187.923 326.854 187.541 327.291 187.541 327.827V329.818H167.358V327.827C167.358 327.291 166.976 326.854 166.505 326.854H166.282C166.232 326.282 166.172 325.619 166.119 325.015C166.684 324.816 167.097 324.225 167.097 323.514C167.097 322.641 166.478 321.935 165.716 321.935C164.954 321.935 164.337 322.641 164.337 323.514C164.337 324.222 164.748 324.814 165.311 325.015C165.255 325.624 165.198 326.284 165.147 326.854H164.926C164.455 326.854 164.075 327.291 164.075 327.827V329.818H163.123V309.274H164.432C164.901 305.482 167.002 302.482 170.321 301.946V301.165H206.973V301.946C210.292 302.482 212.393 305.482 212.862 309.274ZM211.009 335.986H201.453V335.872C201.965 333.265 203.278 331.336 206.294 331.336C209.171 331.336 210.438 333.012 211.009 335.346V335.986ZM200.541 335.986H190.824V335.935C191.327 333.294 192.638 331.336 195.677 331.336C198.816 331.336 200.049 333.32 200.541 335.986ZM187.541 335.986H177.986V335.872C178.497 333.265 179.811 331.336 182.826 331.336C185.704 331.336 186.97 333.012 187.541 335.346V335.986ZM177.073 335.986H167.358V335.935C167.859 333.294 169.171 331.336 172.211 331.336C175.348 331.336 176.581 333.32 177.073 335.986ZM156.425 335.986H154.518V335.872C154.815 334.351 155.401 333.075 156.425 332.265V335.986ZM163.123 333.114C163.56 333.74 163.868 334.497 164.075 335.346V335.986H163.123V333.114ZM153.605 335.986H143.89V335.935C144.393 333.294 145.703 331.336 148.744 331.336C151.88 331.336 153.113 333.32 153.605 335.986ZM140.608 335.986H131.05V335.872C131.561 333.265 132.875 331.336 135.89 331.336C138.768 331.336 140.035 333.012 140.608 335.346V335.986ZM130.137 335.986H120.423V335.935C120.926 333.294 122.235 331.336 125.276 331.336C128.412 331.336 129.645 333.32 130.137 335.986ZM117.14 335.986H107.582V335.872C108.093 333.265 109.407 331.336 112.422 331.336C115.3 331.336 116.569 333.012 117.14 335.346V335.986ZM105.377 332.855C106.041 333.667 106.442 334.747 106.67 335.986H105.377V332.855ZM98.6778 335.986H96.9547V335.935C97.2306 334.487 97.7632 333.257 98.6778 332.43V335.986ZM284.696 335.986V335.935C285.198 333.294 286.51 331.336 289.549 331.336C292.685 331.336 293.92 333.32 294.412 335.986H284.696ZM304.881 335.986H295.323V335.872C295.834 333.265 297.15 331.336 300.165 331.336C303.043 331.336 304.31 333.012 304.881 335.346V335.986ZM308.163 335.986V335.935C308.666 333.294 309.978 331.336 313.017 331.336C316.153 331.336 317.388 333.32 317.88 335.986H308.163ZM322.349 335.986H318.791V335.872C319.224 333.672 320.238 331.974 322.349 331.489V335.986ZM308.163 329.818V327.827C308.163 327.291 307.781 326.854 307.31 326.854H307.09C307.039 326.282 306.979 325.619 306.924 325.015C307.489 324.816 307.902 324.225 307.902 323.514C307.902 322.641 307.285 321.935 306.523 321.935C305.759 321.935 305.142 322.641 305.142 323.514C305.142 324.222 305.553 324.814 306.118 325.015C306.063 325.624 306.003 326.284 305.952 326.854H305.734C305.263 326.854 304.881 327.291 304.881 327.827V329.818H284.696V327.827C284.696 327.291 284.314 326.854 283.845 326.854H283.622C283.571 326.282 283.511 325.619 283.456 325.015C284.021 324.816 284.435 324.225 284.435 323.514C284.435 322.641 283.817 321.935 283.055 321.935C282.291 321.935 281.674 322.641 281.674 323.514C281.674 324.222 282.085 324.814 282.65 325.015C282.595 325.624 282.535 326.284 282.484 326.854H282.266C281.795 326.854 281.413 327.291 281.413 327.827V329.818H278.614V309.274H279.923C280.392 305.482 282.495 302.482 285.812 301.946V301.165H315.151V301.946C318.47 302.482 320.571 305.482 321.04 309.274H322.349V329.818H308.163ZM365.726 335.872C366.238 333.265 367.553 331.336 370.567 331.336C373.699 331.336 374.934 333.311 375.426 335.969V335.986H365.726V335.872ZM355.099 335.935C355.602 333.294 356.913 331.336 359.952 331.336C363.089 331.336 364.324 333.32 364.814 335.986H355.099V335.935ZM342.259 335.872C342.77 333.265 344.086 331.336 347.101 331.336C349.976 331.336 351.245 333.012 351.816 335.346V335.986H342.259V335.872ZM331.631 335.935C332.134 333.294 333.446 331.336 336.484 331.336C339.621 331.336 340.856 333.32 341.348 335.986H331.631V335.935ZM329.586 325.015C329.53 325.624 329.471 326.284 329.42 326.854H329.201C329.146 326.854 329.1 326.878 329.049 326.888V324.635C329.202 324.799 329.378 324.94 329.586 325.015ZM218.014 254.25V240.121H260.941V254.25H218.014ZM211.317 240.121V254.25H168.39V240.121H211.317ZM161.692 240.121V254.25H118.767V240.121H161.692ZM267.638 254.25V240.121H310.566V254.25H267.638ZM69.143 240.121H112.068V254.25H69.143V240.121ZM37.1784 335.872C37.6898 333.265 39.0055 331.336 42.021 331.336C44.8964 331.336 46.1653 333.012 46.7362 335.346V335.986H37.1784V335.872ZM26.5511 335.935C27.0541 333.294 28.3655 331.336 31.4043 331.336C34.5407 331.336 35.7757 333.32 36.2681 335.986H26.5511V335.935ZM13.7106 335.872C14.222 333.265 15.5377 331.336 18.5531 331.336C21.4285 331.336 22.6975 333.012 23.2683 335.346V335.986H13.7106V335.872ZM3.08329 335.935C3.58622 333.294 4.89765 331.336 7.93644 331.336C11.0728 331.336 12.3079 333.32 12.8002 335.986H3.08329V335.935ZM1304.53 298.218C1306.3 298.218 1308.02 298.177 1309.71 298.119V326.1H1302.37V298.218C1303.09 298.218 1303.8 298.218 1304.53 298.218ZM1288.39 235.544C1289.2 235.544 1289.97 235.515 1290.76 235.501V254.267H1287.06V235.544C1287.51 235.544 1287.94 235.544 1288.39 235.544ZM1268.26 170.397C1269.55 170.397 1270.78 170.358 1271.98 170.302V193.238H1267.12V170.397C1267.5 170.397 1267.87 170.397 1268.26 170.397ZM1180.75 170.295C1181.79 170.356 1182.84 170.397 1183.91 170.397C1184.64 170.397 1185.35 170.397 1186.06 170.397V193.238H1180.75V170.295ZM1162.14 235.518C1162.52 235.525 1162.9 235.544 1163.29 235.544C1164.25 235.544 1165.18 235.544 1166.11 235.544V254.267H1162.14V235.518ZM1143.26 298.148C1144.42 298.189 1145.58 298.218 1146.76 298.218C1148.14 298.218 1149.48 298.218 1150.81 298.218V326.1H1143.26V298.148ZM1131.86 350.139C1132.17 348.497 1132.8 347.122 1133.95 346.314V350.19H1131.86V350.139ZM1119.02 350.076C1119.53 347.469 1120.84 345.54 1123.86 345.54C1126.74 345.54 1128 347.216 1128.57 349.55V350.19H1119.02V350.076ZM1108.39 350.139C1108.89 347.498 1110.2 345.54 1113.24 345.54C1116.38 345.54 1117.61 347.522 1118.1 350.19H1108.39V350.139ZM1095.55 350.076C1096.06 347.469 1097.37 345.54 1100.39 345.54C1103.27 345.54 1104.53 347.216 1105.11 349.55V350.19H1095.55V350.076ZM1084.92 350.139C1085.42 347.498 1086.73 345.54 1089.77 345.54C1092.91 345.54 1094.14 347.522 1094.64 350.19H1084.92V350.139ZM1072.08 350.076C1072.59 347.469 1073.91 345.54 1076.92 345.54C1079.8 345.54 1081.07 347.216 1081.64 349.547V350.19H1072.08V350.076ZM1061.45 350.139C1061.96 347.498 1063.27 345.54 1066.31 345.54C1069.44 345.54 1070.68 347.522 1071.17 350.19H1061.45V350.139ZM1058.17 349.55V350.19H1055.7C1055.4 348.512 1054.76 347 1053.93 345.582C1056.46 345.766 1057.63 347.357 1058.17 349.55ZM973.353 204.987C972.627 205.579 971.755 205.933 971.059 206.569C970.571 207.013 970.422 207.551 969.728 207.571C968.287 207.614 967.687 205.844 967.547 204.155C972.353 203.064 976.544 201.82 977.709 202.055C977.745 202.062 977.777 202.072 977.811 202.079C976.273 202.921 974.77 203.835 973.353 204.987ZM984.33 141.278C987.378 140.623 990.376 139.498 992.736 137.329C995.7 140.155 1002.07 138.642 1005.68 135.799C1004.22 140.992 1001.72 145.54 997.79 148.8C993.788 152.118 988.944 153.132 984.47 155.198C984.381 155.089 984.298 154.978 984.205 154.871C984.95 150.469 984.897 145.729 984.33 141.278ZM973.618 140.141C976.203 140.584 976.924 142.229 980.411 141.904C979.938 144.004 979.549 146.134 979.18 148.358C979.048 149.154 978.915 149.945 978.781 150.733C975.203 148.829 970.847 147.606 966.562 147.228C966.305 146.808 966.049 146.389 965.822 145.926C965.208 144.676 964.714 143.335 964.315 141.943C968.347 141.332 972.67 139.976 973.618 140.141ZM967.11 233.655C967.038 233.696 966.972 233.745 966.906 233.793C966.938 233.529 966.963 233.257 966.976 232.978C967.021 233.201 967.063 233.429 967.11 233.655ZM951.075 206.101C949.758 204.81 947.251 203.404 946.625 201.466C946.441 200.891 946.294 199.627 945.853 199.338C945.794 199.3 945.719 199.292 945.651 199.273C947.313 198.902 948.82 198.341 949.995 197.609C947.364 206.739 956.266 206.421 964.72 204.757C964.752 207.818 965.111 211.551 962.172 212.642C960.962 213.094 959.6 212.322 958.539 211.697C955.916 210.154 953.337 208.32 951.075 206.101ZM932.951 254.352C932.285 254.699 931.584 254.954 930.865 255.082C929.8 255.271 928.781 255.216 927.711 255.511C926.364 255.885 925.312 257.168 923.939 257.309C922.056 257.505 920.134 256.288 918.415 255.495C917.634 255.136 916.976 254.587 916.24 254.134C915.293 253.549 914.2 253.525 913.258 252.955C912.883 252.727 912.524 252.426 912.178 252.094C917.517 251.247 922.74 248.128 924.668 243.808C928.747 243.44 932.541 245.315 936.552 245.906C937.528 246.049 938.568 246.26 939.614 246.391C939.045 248.8 938.086 251.155 936.255 252.506C935.228 253.265 934.052 253.78 932.951 254.352ZM970.904 268.614C967.715 266.293 964.34 264.348 960.701 263.256C958.339 262.546 955.85 262.383 953.522 261.563C952.718 261.279 951.958 261.022 951.131 260.838C950.034 260.591 949.299 259.97 948.3 259.441C947.094 258.805 946.15 257.716 945.291 256.55C944.837 255.934 943.913 256.45 944.073 257.27C944.196 257.898 944.941 259.669 944.756 260.219C944.533 260.886 943.186 261.393 942.653 261.318C942.63 261.228 942.625 261.144 942.602 261.054C940.499 260.7 938.324 260.996 936.202 260.591C933.798 260.13 934.054 258.556 935.712 256.967C937.749 255.014 939.714 252.953 941.284 250.44C942.135 249.077 942.778 247.672 943.271 246.239C943.44 246.19 943.612 246.149 943.78 246.083C945 245.603 946.307 243.289 947.035 243.095C949.289 242.511 953.563 242.535 957.58 241.734C958.49 241.55 959.383 241.32 960.241 241.033C960.171 243.316 961.44 245.741 963.606 245.523C964.058 245.482 964.476 245.443 964.882 245.412C964.799 246.445 965.136 247.558 965.798 248.271C967.226 249.792 968.553 250.576 970.339 250.36C971.12 254.602 972.071 258.832 973.694 262.643C974.651 264.886 975.929 266.904 977.149 268.951C977.631 269.759 978.817 271.19 978.949 272.16C979.093 273.213 978.006 273.977 977.151 273.8C976.364 273.64 976.213 272.871 975.592 272.289C974.14 270.931 972.479 269.762 970.904 268.614ZM945.507 316.628C945.777 314.843 946.477 314.011 948.058 315.675C949.698 317.411 950.333 319.691 950.592 322.071C950.592 322.076 950.592 322.078 950.592 322.08C948.915 320.227 947.22 318.44 945.507 316.715C945.507 316.686 945.507 316.657 945.507 316.628ZM939.809 311.243C940.081 309.407 940.794 308.49 942.426 310.033C944.109 311.636 944.76 313.868 945.021 316.23C943.302 314.518 941.564 312.866 939.809 311.282C939.809 311.267 939.809 311.255 939.809 311.243ZM932.768 305.25C933.051 303.413 933.783 302.455 935.442 303.828C937.046 305.165 937.719 307.142 938.025 309.291C938.025 309.426 938.025 309.565 938.025 309.701C936.289 308.185 934.536 306.729 932.768 305.337C932.768 305.308 932.768 305.279 932.768 305.25ZM926.82 300.893C927.102 299.006 927.845 297.963 929.549 299.215C931.304 300.513 931.987 302.625 932.261 304.942C930.462 303.54 928.647 302.203 926.82 300.932C926.82 300.918 926.82 300.905 926.82 300.893ZM919.684 296.246C919.979 294.364 920.734 293.277 922.457 294.364C923.856 295.252 924.577 296.707 924.961 298.39C924.961 298.817 924.961 299.246 924.961 299.673C923.215 298.504 921.456 297.386 919.684 296.336C919.684 296.304 919.684 296.275 919.684 296.246ZM913.54 292.904C913.831 290.97 914.597 289.801 916.356 290.762C918.169 291.764 918.877 293.757 919.16 296.025C917.299 294.934 915.425 293.905 913.54 292.942C913.54 292.93 913.54 292.916 913.54 292.904ZM906.02 289.377C906.321 287.444 907.098 286.233 908.866 287.027C910.578 287.8 911.3 289.539 911.626 291.582C911.626 291.72 911.626 291.856 911.626 291.992C909.765 291.089 907.898 290.245 906.02 289.467C906.02 289.438 906.02 289.406 906.02 289.377ZM899.728 287.063C900.025 285.081 900.806 283.786 902.608 284.453C904.464 285.149 905.192 287.024 905.481 289.246C903.571 288.465 901.653 287.752 899.728 287.102C899.728 287.09 899.728 287.075 899.728 287.063ZM892.061 284.778C892.367 282.796 893.156 281.457 894.958 281.957C896.702 282.452 897.44 284.07 897.774 286.059C897.774 286.195 897.774 286.333 897.774 286.469C895.874 285.872 893.971 285.336 892.061 284.868C892.061 284.836 892.061 284.807 892.061 284.778ZM885.674 283.493C885.977 281.46 886.766 280.039 888.593 280.412C890.48 280.805 891.219 282.561 891.513 284.734C889.572 284.269 887.624 283.866 885.674 283.531C885.674 283.517 885.674 283.505 885.674 283.493ZM877.926 282.447C878.234 280.417 879.029 278.95 880.85 279.161C882.586 279.369 883.352 280.815 883.696 282.707C883.696 282.876 883.696 283.046 883.696 283.214C881.775 282.927 879.851 282.699 877.926 282.537C877.926 282.508 877.926 282.479 877.926 282.447ZM871.496 282.19C871.799 280.111 872.593 278.561 874.433 278.639C876.33 278.731 877.075 280.366 877.374 282.493C875.415 282.34 873.457 282.251 871.496 282.229C871.496 282.217 871.496 282.202 871.496 282.19ZM863.727 282.389C864.037 280.308 864.831 278.714 866.656 278.632C868.396 278.561 869.164 279.886 869.51 281.722C869.51 281.892 869.51 282.061 869.51 282.231C867.581 282.251 865.654 282.331 863.727 282.476C863.727 282.447 863.727 282.418 863.727 282.389ZM857.31 283.158C857.614 281.031 858.403 279.355 860.239 279.139C862.134 278.925 862.878 280.444 863.175 282.52C861.219 282.68 859.262 282.906 857.31 283.197C857.31 283.184 857.31 283.17 857.31 283.158ZM849.586 284.599C849.894 282.467 850.681 280.747 852.493 280.373C854.222 280.026 854.986 281.225 855.33 283.01C855.33 283.177 855.33 283.347 855.33 283.517C853.412 283.844 851.496 284.232 849.586 284.686C849.586 284.657 849.586 284.628 849.586 284.599ZM843.23 286.396C843.532 284.218 844.31 282.416 846.127 281.906C848.003 281.39 848.743 282.789 849.038 284.819C847.097 285.292 845.161 285.831 843.23 286.435C843.23 286.423 843.23 286.408 843.23 286.396ZM835.614 289.079C835.918 286.898 836.692 285.05 838.477 284.385C840.183 283.759 840.936 284.836 841.276 286.563C841.276 286.733 841.276 286.9 841.276 287.07C839.383 287.708 837.494 288.404 835.614 289.166C835.614 289.137 835.614 289.108 835.614 289.079ZM829.375 291.902C829.67 289.678 830.434 287.749 832.217 286.944C834.059 286.124 834.787 287.403 835.077 289.387C833.167 290.172 831.266 291.024 829.375 291.941C829.375 291.929 829.375 291.916 829.375 291.902ZM821.931 295.826C822.226 293.597 822.979 291.623 824.724 290.665C826.392 289.76 827.128 290.716 827.461 292.387C827.461 292.557 827.461 292.727 827.461 292.896C825.609 293.842 823.765 294.844 821.931 295.916C821.931 295.887 821.931 295.856 821.931 295.826ZM815.86 299.681C816.146 297.405 816.887 295.351 818.621 294.252C820.414 293.129 821.125 294.289 821.407 296.224C819.546 297.323 817.695 298.49 815.86 299.719C815.86 299.705 815.86 299.693 815.86 299.681ZM808.651 304.845C808.936 302.567 809.663 300.464 811.351 299.217C812.963 298.034 813.681 298.866 814.003 300.481C814.003 300.651 814.003 300.821 814.003 300.99C812.206 302.244 810.421 303.557 808.651 304.934C808.651 304.905 808.651 304.876 808.651 304.845ZM802.801 309.727C803.074 307.404 803.787 305.221 805.458 303.831C807.185 302.402 807.872 303.443 808.144 305.33C806.347 306.744 804.566 308.223 802.801 309.766C802.801 309.751 802.801 309.739 802.801 309.727ZM795.889 316.133C796.163 313.805 796.857 311.578 798.474 310.038C800.019 308.575 800.706 309.283 801.016 310.845C801.016 311.015 801.016 311.185 801.016 311.355C799.291 312.917 797.58 314.537 795.889 316.223C795.889 316.194 795.889 316.165 795.889 316.133ZM790.312 322.042C790.573 319.672 791.25 317.363 792.842 315.677C794.489 313.948 795.146 314.867 795.405 316.708C793.689 318.435 791.991 320.225 790.312 322.083C790.312 322.068 790.312 322.056 790.312 322.042ZM763.394 316.722L755.755 316.735L755.748 310.71L763.388 310.697L763.394 316.722ZM763.356 280.189L763.386 308.175L755.746 308.185L755.716 280.201L763.356 280.189ZM573.777 234.002L602.888 233.961L602.894 240.439L573.784 240.48L573.777 234.002ZM751.059 240.231L744.41 240.238L744.404 233.759L751.052 233.752L751.059 240.231ZM751.018 203.697L751.048 231.227L744.402 231.237L744.37 203.707L751.018 203.697ZM738.11 240.248L705.85 240.294L705.844 233.815L738.103 233.769L738.11 240.248ZM732.266 169.388L724.291 169.397L724.284 163.118L732.259 163.108L732.266 169.388ZM732.225 131.139L732.257 160.583L724.28 160.595L724.251 131.149L732.225 131.139ZM738.069 203.714L738.099 231.246L705.84 231.292L705.81 203.76L738.069 203.714ZM717.99 169.407L699.087 169.434L699.081 163.154L717.984 163.127L717.99 169.407ZM717.948 131.159L717.98 160.605L699.079 160.632L699.047 131.186L717.948 131.159ZM692.774 169.444L659.585 169.49L659.579 163.21L692.768 163.164L692.774 169.444ZM692.734 131.195L692.766 160.639L659.576 160.687L659.543 131.241L692.734 131.195ZM653.272 169.499L615.815 169.553L615.809 163.271L653.266 163.22L653.272 169.499ZM653.232 131.251L653.263 160.695L615.807 160.748L615.775 131.304L653.232 131.251ZM609.515 169.56L593.75 169.584L593.744 163.302L609.509 163.28L609.515 169.56ZM609.473 131.312L609.507 160.758L593.742 160.78L593.71 131.333L609.473 131.312ZM587.45 168.98C586.839 169.194 586.234 169.4 585.64 169.594L578.817 169.604L578.811 163.324L587.443 163.312L587.45 168.98ZM587.409 131.343L587.441 160.789L578.809 160.801L578.777 131.355L587.409 131.343ZM602.854 203.906L602.886 231.438L573.775 231.479L573.746 203.947L602.854 203.906ZM567.483 240.49L560.166 240.5L560.16 234.021L567.477 234.011L567.483 240.49ZM567.445 203.957L567.475 231.486L560.156 231.496L560.126 203.966L567.445 203.957ZM551.927 317.023L543.965 317.033L543.958 311.008L551.92 310.998L551.927 317.023ZM551.888 280.49L551.918 308.473L543.956 308.485L543.924 280.499L551.888 280.49Z" fill="#C2AF93"/>
</g>
</g>
</svg>
