<svg width="227" height="227" viewBox="0 0 227 227" fill="none" xmlns="http://www.w3.org/2000/svg">
<path d="M0.800047 173L0.800039 0.000198364L5.00004 0.000198181L5.00005 173L0.800047 173ZM5.00005 173L5.00005 168.8L54 168.8L54 173L5.00005 173ZM54 226.2L54 168.8L58.2 168.8L58.2 226.2L54 226.2ZM58.2 226.2L58.2 222L227 222L227 226.2L58.2 226.2Z" fill="url(#paint0_linear_4_543)"/>
<mask id="mask0_4_543" style="mask-type:luminance" maskUnits="userSpaceOnUse" x="0" y="0" width="227" height="227">
<path d="M0.800047 173L0.800039 0.000198364L5.00004 0.000198181L5.00005 173L0.800047 173ZM5.00005 173L5.00005 168.8L54 168.8L54 173L5.00005 173ZM54 226.2L54 168.8L58.2 168.8L58.2 226.2L54 226.2ZM58.2 226.2L58.2 222L227 222L227 226.2L58.2 226.2Z" fill="white"/>
</mask>
<g mask="url(#mask0_4_543)">
<path d="M227 226.2L0.800049 226.2L0.800039 0.000198364L227 0.000188477L227 226.2Z" fill="url(#paint1_linear_4_543)"/>
</g>
<path d="M0.800047 173L0.800039 0.000198364L5.00004 0.000198181L5.00005 173L0.800047 173ZM5.00005 173L5.00005 168.8L54 168.8L54 173L5.00005 173ZM54 226.2L54 168.8L58.2 168.8L58.2 226.2L54 226.2ZM58.2 226.2L58.2 222L227 222L227 226.2L58.2 226.2Z" fill="url(#paint2_linear_4_543)"/>
<defs>
<linearGradient id="paint0_linear_4_543" x1="3.00024" y1="222.5" x2="224.5" y2="1.00016" gradientUnits="userSpaceOnUse">
<stop stop-color="#BAA485"/>
<stop offset="0.495" stop-color="#544A3C" stop-opacity="0"/>
</linearGradient>
<linearGradient id="paint1_linear_4_543" x1="3.00024" y1="222.5" x2="224.5" y2="1.00016" gradientUnits="userSpaceOnUse">
<stop stop-color="#BAA485"/>
<stop offset="0.495" stop-color="#544A3C" stop-opacity="0"/>
</linearGradient>
<linearGradient id="paint2_linear_4_543" x1="3.00024" y1="222.5" x2="224.5" y2="1.00016" gradientUnits="userSpaceOnUse">
<stop stop-color="#BAA485"/>
<stop offset="0.495" stop-color="#544A3C" stop-opacity="0"/>
</linearGradient>
</defs>
</svg>
